<svg width="154" height="154" viewBox="0 0 154 154" fill="none" xmlns="http://www.w3.org/2000/svg">
<g clip-path="url(#clip0_76_82)">
<path d="M125.625 25.5999L61.4812 8.41267C45.8523 4.22492 29.7878 13.4998 25.6 29.1287L8.41283 93.2722C4.22508 108.901 13.5 124.966 29.1288 129.153L93.2724 146.341C108.901 150.528 124.966 141.253 129.154 125.625L146.341 61.4811C150.529 45.8522 141.254 29.7876 125.625 25.5999Z" fill="url(#paint0_linear_76_82)"/>
<g filter="url(#filter0_d_76_82)">
<path d="M70.6357 110.024C84.6322 113.775 94.9029 109.181 97.9317 97.8777C100.221 89.333 95.861 81.5349 87.1872 78.1609L87.2825 77.8052C94.134 78.4961 100.919 73.7796 102.744 66.971C105.343 57.2693 99.3777 48.8975 87.7059 45.77L61.4448 38.7334L44.2378 102.951L70.6357 110.024ZM69.4752 49.6137L83.0618 53.2542C90.4477 55.2333 93.7596 59.6506 92.1617 65.6141C90.4565 71.978 84.6244 74.2308 75.7797 71.8609L64.3357 68.7945L69.4752 49.6137ZM56.6324 97.5435L62.2965 76.4049L75.7916 80.0209C85.4575 82.6109 89.5186 87.5146 87.6583 94.4572C85.7982 101.399 79.9302 103.786 70.7204 101.318L56.6324 97.5435Z" fill="url(#paint1_linear_76_82)"/>
<path d="M70.6357 110.024C84.6322 113.775 94.9029 109.181 97.9317 97.8777C100.221 89.333 95.861 81.5349 87.1872 78.1609L87.2825 77.8052C94.134 78.4961 100.919 73.7796 102.744 66.971C105.343 57.2693 99.3777 48.8975 87.7059 45.77L61.4448 38.7334L44.2378 102.951L70.6357 110.024ZM69.4752 49.6137L83.0618 53.2542C90.4477 55.2333 93.7596 59.6506 92.1617 65.6141C90.4565 71.978 84.6244 74.2308 75.7797 71.8609L64.3357 68.7945L69.4752 49.6137ZM56.6324 97.5435L62.2965 76.4049L75.7916 80.0209C85.4575 82.6109 89.5186 87.5146 87.6583 94.4572C85.7982 101.399 79.9302 103.786 70.7204 101.318L56.6324 97.5435Z" stroke="white" stroke-width="2"/>
</g>
</g>
<defs>
<filter id="filter0_d_76_82" x="27.0129" y="25.5088" width="93.333" height="106.799" filterUnits="userSpaceOnUse" color-interpolation-filters="sRGB">
<feFlood flood-opacity="0" result="BackgroundImageFix"/>
<feColorMatrix in="SourceAlpha" type="matrix" values="0 0 0 0 0 0 0 0 0 0 0 0 0 0 0 0 0 0 127 0" result="hardAlpha"/>
<feOffset dy="4"/>
<feGaussianBlur stdDeviation="8"/>
<feColorMatrix type="matrix" values="0 0 0 0 0 0 0 0 0 0 0 0 0 0 0 0 0 0 0.15 0"/>
<feBlend mode="normal" in2="BackgroundImageFix" result="effect1_dropShadow_76_82"/>
<feBlend mode="normal" in="SourceGraphic" in2="effect1_dropShadow_76_82" result="shape"/>
</filter>
<linearGradient id="paint0_linear_76_82" x1="33.1826" y1="0.830078" x2="121.571" y2="153.923" gradientUnits="userSpaceOnUse">
<stop stop-color="#9013FE"/>
<stop offset="1" stop-color="#6B11F4"/>
</linearGradient>
<linearGradient id="paint1_linear_76_82" x1="64.931" y1="44.1979" x2="81.1144" y2="102.179" gradientUnits="userSpaceOnUse">
<stop stop-color="white"/>
<stop offset="1" stop-color="#F1E5FC"/>
</linearGradient>
<clipPath id="clip0_76_82">
<rect width="125" height="125" fill="white" transform="translate(33.1826 0.830078) rotate(15)"/>
</clipPath>
</defs>
</svg>
