<svg width="154" height="154" viewBox="0 0 154 154" fill="none" xmlns="http://www.w3.org/2000/svg">
<g clip-path="url(#clip0_76_76)">
<path d="M92.4421 7.58275L28.2986 24.7699C12.6697 28.9577 3.39484 45.0223 7.58259 60.6511L24.7698 124.795C28.9575 140.424 45.0221 149.698 60.651 145.511L124.794 128.323C140.423 124.136 149.698 108.071 145.511 92.4423L128.323 28.2988C124.136 12.6699 108.071 3.395 92.4421 7.58275Z" fill="#0277BD"/>
<path d="M38.3249 73.9742L43.7115 88.6777L77.425 79.6442L73.3883 64.579L38.3249 73.9742ZM65.2174 34.0869L27.4412 44.209L32.8475 58.9072L69.2542 49.1521L65.2174 34.0869ZM88.0715 119.379L83.8716 103.705L83.8103 103.74L65.8182 103.706L61.5261 91.9777L46.4028 96.03L54.8517 119.119L88.0073 119.417L88.0715 119.379Z" fill="#EBEBEB"/>
<path d="M95.9238 74.6873L99.4102 94.6942L83.8231 103.732L88.0227 119.405L116.614 102.57L116.158 99.9638L109.071 59.3538L108.354 55.2096L102.904 23.9886L65.1655 34.1006L69.2022 49.1658L90.4304 43.4777L93.1935 59.272L73.3359 64.5928L77.3726 79.658L95.9238 74.6873Z" fill="white"/>
</g>
<defs>
<clipPath id="clip0_76_76">
<rect width="125" height="125" fill="white" transform="translate(0 32.3525) rotate(-15)"/>
</clipPath>
</defs>
</svg>
