<svg width="128" height="128" viewBox="0 0 128 128" fill="none" xmlns="http://www.w3.org/2000/svg">
<g clip-path="url(#clip0_76_186)">
<path d="M72.3261 7.688L22.1406 25.1146C9.91271 29.3606 3.44212 42.7154 7.68818 54.9434L25.1147 105.129C29.3608 117.357 42.7156 123.827 54.9436 119.581L105.129 102.155C117.357 97.9087 123.828 84.5539 119.581 72.3259L102.155 22.1405C97.9089 9.91252 84.5541 3.44194 72.3261 7.688Z" fill="#F03C2E"/>
<mask id="mask0_76_186" style="mask-type:luminance" maskUnits="userSpaceOnUse" x="13" y="13" width="101" height="101">
<path d="M13.9202 39.5474L87.7223 13.9201L113.35 87.7222L39.5474 113.35L13.9202 39.5474Z" fill="white"/>
</mask>
<g mask="url(#mask0_76_186)">
<path d="M98.002 48.0185L54.5916 26.9856C53.6963 26.5511 52.6922 26.3922 51.7065 26.5289C50.7208 26.6655 49.7979 27.0917 49.0546 27.7533C48.5611 28.1924 48.1589 28.7245 47.8711 29.3192L43.5053 38.33L54.9397 43.8701C56.6736 42.4927 59.098 42.1805 61.2169 43.2075C62.2261 43.6976 63.0771 44.4617 63.6727 45.4124C64.2683 46.3631 64.5846 47.4622 64.5853 48.5841L75.6066 53.924C77.3485 52.5541 79.7845 52.2016 81.9144 53.2376C82.9804 53.7538 83.8693 54.5747 84.4685 55.5963C85.0677 56.6179 85.3503 57.7944 85.2806 58.9767C85.1871 60.5619 84.4679 62.045 83.2813 63.1002C82.0946 64.1553 80.5375 64.696 78.9523 64.6034C78.1671 64.5572 77.3988 64.3571 76.6913 64.014C74.4541 62.9301 73.1949 60.6279 73.324 58.2906L63.0455 53.3105L70.017 73.3872C70.6659 73.4689 71.2975 73.6545 71.8875 73.9369C73.3164 74.6292 74.4118 75.8609 74.9327 77.3608C75.4535 78.8608 75.3572 80.5063 74.6648 81.9352C73.9725 83.3641 72.7409 84.4595 71.2409 84.9804C69.7409 85.5012 68.0955 85.4049 66.6665 84.7126C65.6004 84.1968 64.7112 83.3763 64.1117 82.3549C63.5122 81.3335 63.2293 80.1571 63.2988 78.9748C63.3449 78.1898 63.5456 77.4216 63.8892 76.7142C64.2467 75.9802 64.71 75.3566 65.3128 74.8372L58.2764 54.5737C57.4845 54.5309 56.7091 54.3302 55.996 53.9832C54.9264 53.4657 54.0352 52.6414 53.436 51.6154C52.8367 50.5895 52.5565 49.4083 52.6311 48.2225L41.3541 42.763L26.9237 72.5064C26.4893 73.4021 26.3304 74.4064 26.4671 75.3924C26.6037 76.3784 27.0298 77.3017 27.6913 78.0455C28.1307 78.5392 28.6632 78.9415 29.2582 79.2294L72.6699 100.259C73.2643 100.547 73.9097 100.715 74.5691 100.754C75.9012 100.832 77.2096 100.378 78.2068 99.4912C78.7003 99.052 79.1024 98.5199 79.3903 97.9253L100.345 54.7647C100.633 54.1701 100.801 53.5244 100.84 52.8647C100.879 52.2049 100.787 51.544 100.571 50.9196C100.354 50.2952 100.016 49.7196 99.5768 49.2258C99.1374 48.732 98.605 48.3296 98.01 48.0417" fill="white"/>
</g>
</g>
<defs>
<clipPath id="clip0_76_186">
<rect width="100" height="100" fill="white" transform="translate(0 32.8027) rotate(-19.1492)"/>
</clipPath>
</defs>
</svg>
