<svg width="150" height="150" viewBox="0 0 150 150" fill="none" xmlns="http://www.w3.org/2000/svg">
<path d="M114.844 0H35.1562C15.74 0 0 15.74 0 35.1562V114.844C0 134.26 15.74 150 35.1562 150H114.844C134.26 150 150 134.26 150 114.844V35.1562C150 15.74 134.26 0 114.844 0Z" fill="#242938"/>
<path d="M75.0006 86.1037C81.0381 86.1037 85.9318 81.2094 85.9318 75.1725C85.9318 69.1355 81.0381 64.2412 75.0006 64.2412C68.9637 64.2412 64.0693 69.1355 64.0693 75.1725C64.0693 81.2094 68.9637 86.1037 75.0006 86.1037Z" fill="#00D8FF"/>
<path d="M75.0012 52.9468C89.6777 52.9468 103.312 55.0526 113.592 58.5923C125.978 62.8562 133.594 69.3196 133.594 75.1726C133.594 81.2716 125.523 88.1382 112.222 92.545C102.166 95.8767 88.933 97.6157 75.0012 97.6157C60.7172 97.6157 47.1908 95.9833 37.0213 92.5081C24.1553 88.1106 16.4062 81.1556 16.4062 75.1726C16.4062 69.3671 23.6777 62.9534 35.8898 58.696C46.2082 55.0983 60.1787 52.9468 74.9988 52.9468H75.0012Z" stroke="#00D8FF" stroke-width="6.96172"/>
<path d="M55.6527 64.1238C62.9851 51.4101 71.6201 40.6512 79.822 33.5144C89.7033 24.9146 99.1076 21.5467 104.177 24.4699C109.46 27.5168 111.377 37.9394 108.55 51.6633C106.414 62.0385 101.308 74.3701 94.348 86.4392C87.2119 98.8131 79.041 109.715 70.9509 116.786C60.714 125.735 50.8169 128.973 45.6343 125.984C40.6052 123.086 38.6822 113.582 41.0951 100.876C43.1335 90.1394 48.2494 76.9623 55.6503 64.1238H55.6527Z" stroke="#00D8FF" stroke-width="6.96172"/>
<path d="M55.6711 86.4715C48.3182 73.7718 43.3119 60.9152 41.2225 50.2453C38.7071 37.3892 40.4854 27.5601 45.5508 24.6281C50.8295 21.5718 60.8157 25.1168 71.2934 34.4203C79.2153 41.4539 87.3498 52.0342 94.3301 64.0916C101.487 76.4537 106.85 88.9781 108.937 99.5179C111.577 112.856 109.44 123.047 104.262 126.044C99.2385 128.953 90.0446 125.874 80.2413 117.438C71.9584 110.31 63.0967 99.2976 55.6711 86.4715Z" stroke="#00D8FF" stroke-width="6.96172"/>
</svg>
