<svg width="138" height="138" viewBox="0 0 138 138" fill="none" xmlns="http://www.w3.org/2000/svg">
<g clip-path="url(#clip0_76_92)">
<path d="M66.2436 12.2165L20.4904 39.2149C9.34241 45.7932 5.63794 60.1632 12.2162 71.3112L39.2146 117.064C45.7929 128.212 60.1629 131.917 71.3109 125.339L117.064 98.3401C128.212 91.7618 131.917 77.3919 125.338 66.2439L98.3398 20.4907C91.7615 9.34271 77.3916 5.63824 66.2436 12.2165Z" fill="url(#paint0_linear_76_92)"/>
<path d="M40.6085 58.5216C40.1509 65.4218 44.3442 71.5718 49.9833 75.2804L50.3911 75.541L50.6572 75.7014C50.7078 75.7333 50.7613 75.7625 50.812 75.7924C50.9053 75.849 50.9965 75.9022 51.0829 75.9609L51.5804 76.2443L51.8589 76.3974L52.4104 76.6825L52.6501 76.7982C52.8974 76.9267 53.1604 77.0441 53.4194 77.1603L53.4402 77.1693C53.4812 77.1882 53.5248 77.2051 53.5605 77.2272C53.7835 77.3269 54.0156 77.4181 54.2418 77.5109L54.4911 77.6105L55.0937 77.84L55.3212 77.9235C55.5911 78.0205 55.863 78.1131 56.1363 78.2004L56.1524 78.2045C56.1635 78.2088 56.1727 78.2098 56.1839 78.2141C56.4495 78.3 56.7169 78.3794 56.9862 78.4523L57.2392 78.5207L57.8628 78.6811L58.1144 78.7417C58.3904 78.8066 58.6676 78.8666 58.9455 78.9226L59.0999 78.9513L59.8354 79.0833L60.1341 79.1283L60.7288 79.206L61.0459 79.2461L61.9362 79.3336C61.9583 79.335 61.9789 79.3383 62.0014 79.3395C62.2075 79.3553 62.4141 79.3664 62.6209 79.3772L62.8898 79.394L63.8395 79.4169L64.0965 79.4136L64.7935 79.4033C64.9194 79.3992 65.0464 79.3915 65.1708 79.3847L65.6561 79.3555L65.7667 79.3469L65.9637 79.3318L66.7192 79.2616L66.8822 79.2511C67.17 79.2178 67.4572 79.1794 67.7436 79.1361L67.9514 79.1046L68.7464 78.9661L68.8451 78.9474C69.1354 78.8904 69.4247 78.8284 69.7128 78.7614L69.9191 78.7114C70.2185 78.6376 70.5108 78.5881 70.7953 78.486C88.8257 71.924 85.8979 56.1777 85.8979 56.1777C85.0378 63.7753 78.8204 69.3128 71.2447 71.7026C70.9545 71.7881 70.6657 71.8583 70.3753 71.9295L70.152 71.9755C69.8678 72.0419 69.5825 72.1036 69.2962 72.1607L69.1762 72.1826C68.9195 72.2312 68.662 72.2759 68.404 72.3167L68.1839 72.3504C67.9006 72.3937 67.6164 72.4317 67.3317 72.4641L67.1598 72.4834L66.4235 72.5492L66.2103 72.5652C66.0165 72.5783 65.8226 72.589 65.6286 72.5973L65.238 72.6133C65.0006 72.621 64.763 72.6243 64.5255 72.6232L64.2853 72.6275C63.9688 72.625 63.6522 72.6174 63.3359 72.605C63.2479 72.6011 63.1608 72.5935 63.0731 72.5886L62.3816 72.5458L62.1553 72.5251L61.4853 72.4574L61.1839 72.4207L60.5642 72.3337L60.2862 72.2923L59.4988 72.1569C59.4682 72.1507 59.4373 72.1469 59.4062 72.1453C59.1207 72.0878 58.8362 72.0259 58.5527 71.9595L58.3074 71.8988L57.6769 71.7374L57.4283 71.6696C57.1617 71.5956 56.8964 71.5166 56.6327 71.4329C56.6196 71.4284 56.6058 71.4256 56.5934 71.4216C56.3146 71.3335 56.0374 71.2395 55.7622 71.1406L55.5407 71.0604L54.9209 70.8233L54.6929 70.7351L53.9545 70.4207C47.2201 67.4632 41.7134 61.1534 41.2274 53.589L40.6085 58.5216ZM48.5922 48.2244C48.2646 53.2187 51.2081 57.9064 55.3254 60.5541C56.0154 60.9994 56.7345 61.3978 57.4779 61.7468C58.1553 62.0632 58.9325 62.4578 59.6669 62.5986C59.9544 62.6861 60.2499 62.7689 60.5519 62.8533C60.6278 62.8743 60.7037 62.8921 60.7807 62.9129C61.0686 62.9857 61.3582 63.052 61.6489 63.1113C61.6604 63.1131 61.6719 63.1164 61.6837 63.118C62.0097 63.1818 62.3372 63.2373 62.666 63.2845L62.8825 63.3141C63.2078 63.358 63.5344 63.3925 63.8616 63.419C63.8706 63.4205 63.88 63.4217 63.8895 63.4225C64.0334 63.4342 64.1784 63.4402 64.3225 63.4477C64.392 63.4516 64.4594 63.459 64.5274 63.4606C64.7574 63.4714 64.9876 63.4771 65.2175 63.4779L65.3137 63.4778L65.9088 63.4695C65.9787 63.4687 66.0471 63.4633 66.1171 63.4596L66.5319 63.4362C66.553 63.4351 66.5724 63.4318 66.5921 63.4306C66.8701 63.4121 67.1459 63.3868 67.4247 63.3552C67.4841 63.3482 67.5436 63.339 67.6039 63.3306C67.826 63.3031 68.0475 63.2716 68.2684 63.2361L68.5476 63.1865C68.7456 63.1509 68.9429 63.1124 69.1398 63.0711L69.4031 63.0123C69.6805 62.9489 69.9661 62.9055 70.2341 62.8032C84.026 57.5181 81.1184 45.9726 81.1184 45.9726C80.767 51.341 76.7908 56.1515 70.5543 57.9094C70.2782 57.9866 70.0001 58.0563 69.7203 58.1185C69.6352 58.1388 69.551 58.1568 69.4691 58.181C69.2701 58.2244 69.0703 58.264 68.8697 58.2998L68.5948 58.3473C68.3773 58.3899 68.1525 58.4155 67.9315 58.443C67.8705 58.4503 67.8109 58.4601 67.7504 58.4659C67.4719 58.4996 67.1925 58.5252 66.9126 58.5426C66.7693 58.5527 66.6265 58.5589 66.4836 58.5657L66.2358 58.5786C66.0506 58.5842 65.8652 58.5863 65.6799 58.585L65.5431 58.58C65.3141 58.5787 65.0851 58.5732 64.8562 58.5635C64.7855 58.5604 64.7181 58.5593 64.6441 58.5499L64.189 58.5228C63.8629 58.4956 63.5376 58.4606 63.2132 58.4178L62.9884 58.3858C59.5069 57.8802 56.1038 56.3905 53.4781 53.9731C50.744 51.4712 48.9248 47.9279 48.9062 44.1915L48.5922 48.2244ZM55.5348 39.9544C55.3694 42.9462 56.8022 45.6948 59.2013 47.4753C61.734 49.373 65.0464 50.0804 68.1045 49.5372C68.231 49.5156 68.3551 49.4891 68.4873 49.4596L68.6511 49.4228C68.8263 49.383 69.0055 49.3507 69.175 49.2906C76.9052 46.566 75.8434 40.4753 75.9106 39.4469C75.6889 42.8315 73.2654 45.0427 69.3774 46.2062C69.0708 46.2969 68.7169 46.3728 68.3982 46.4361C67.9953 46.5119 67.5887 46.5661 67.18 46.5984C66.4013 46.6586 65.6186 46.6405 64.8435 46.5444C60.416 45.9934 55.8884 42.6313 55.7192 37.8173M67.1296 94.5512L67.6423 96.4916L67.13 94.5519L67.1296 94.5512ZM78.6708 82.6056L76.5214 83.874C76.4618 83.9121 76.4162 83.9685 76.3913 84.0348C76.3665 84.101 76.3638 84.1736 76.3836 84.2415L79.0252 92.2053C79.0448 92.2731 79.0421 92.3453 79.0173 92.4114C78.9925 92.4774 78.947 92.5337 78.8876 92.5718L77.366 93.4697C75.8602 94.3582 75.4202 93.2145 74.8924 91.6029L74.8767 91.5541L74.485 90.4735L74.3272 90.0264L73.0211 86.2257C73.0124 86.1959 72.9969 86.1686 72.9757 86.1459C72.9546 86.1232 72.9284 86.1058 72.8993 86.095C72.8702 86.0843 72.839 86.0805 72.8082 86.084C72.7774 86.0875 72.7478 86.0982 72.7218 86.1152L70.5153 87.4172C70.4557 87.4552 70.4102 87.5116 70.3855 87.5778C70.3608 87.644 70.3583 87.7164 70.3785 87.7842L72.1664 93.0854C73.0921 95.9032 74.6414 98.1975 77.6562 96.5187L77.743 96.4698L82.4054 93.7185C82.465 93.6804 82.5106 93.624 82.5354 93.5578C82.5601 93.4915 82.5628 93.4191 82.5429 93.3512L78.975 82.7114C78.9317 82.5796 78.7969 82.5303 78.6782 82.6004L78.6708 82.6056ZM91.6799 85.0568C91.7997 84.9861 91.9268 85.0394 91.9787 85.1666L92.3725 86.3104L91.6799 85.0568Z" fill="white"/>
<path d="M85.1544 87.1362C85.0866 87.0252 85.1004 86.758 85.2198 86.6876L84.9488 86.8416C85.5398 88.1338 85.1544 87.1362 85.1544 87.1362ZM91.68 85.0567C91.7998 84.986 91.9269 85.0393 91.9789 85.1665L92.4361 86.4964L91.68 85.0567ZM89.1488 89.904L89.0482 89.9633L89.1616 89.8964L89.1488 89.904ZM55.3177 104.777L54.7783 103.099L55.3949 105.016L55.4754 105.254L55.3177 104.775L55.3177 104.777ZM55.6283 96.1701L53.2673 97.5633C53.2075 97.6015 53.1616 97.6579 53.1364 97.7243C53.1112 97.7906 53.108 97.8633 53.1273 97.9316L53.8427 100.167C53.8503 100.197 53.865 100.225 53.8855 100.248C53.9061 100.271 53.9319 100.288 53.9607 100.299C53.9896 100.31 54.0206 100.314 54.0513 100.311C54.082 100.307 54.1113 100.296 54.1369 100.279L56.5164 98.8749C56.5759 98.8368 56.6215 98.7804 56.6464 98.7142C56.6712 98.6481 56.6741 98.5756 56.6545 98.5077L55.9212 96.2767C55.8779 96.1457 55.7452 96.0952 55.6248 96.1663L55.6283 96.1701ZM56.4594 114.423L58.4158 113.29C57.8408 113.629 56.8854 114.178 56.4586 114.423L56.4594 114.423Z" fill="white"/>
<path d="M56.7584 99.6482L54.3782 101.053C54.3184 101.091 54.2725 101.147 54.2473 101.214C54.222 101.28 54.2189 101.353 54.2382 101.421L55.3173 104.776L55.4752 105.255L56.6229 108.653C56.6747 108.812 56.7188 108.975 56.755 109.138C56.755 109.138 57.0905 110.724 56.3353 111.149L55.5863 111.573C55.5265 111.61 55.4801 111.666 55.454 111.731C55.428 111.797 55.4236 111.869 55.4415 111.938L56.1729 114.303C56.1802 114.333 56.1945 114.361 56.2147 114.384C56.2349 114.407 56.2603 114.425 56.2889 114.437C56.3175 114.448 56.3485 114.453 56.3791 114.449C56.4097 114.446 56.4392 114.436 56.465 114.419L58.4222 113.286C60.2894 112.184 60.6624 110.569 59.5374 107.22L57.0658 99.7626C57.0229 99.6314 56.8888 99.5817 56.7693 99.6522L56.7584 99.6482ZM94.5932 86.5283C94.4738 86.5988 94.3463 86.5457 94.2964 86.4173L91.1386 76.976L94.5932 86.5283Z" fill="white"/>
<path d="M94.3849 86.5086C94.3359 86.4586 94.2597 86.3103 94.2163 86.179L92.7169 81.6972L94.2956 86.4179C94.3391 86.5501 94.473 86.5995 94.5924 86.529L94.8101 86.4005C94.6907 86.471 94.4334 86.5584 94.3849 86.5086ZM96.9121 85.0958C96.8623 85.1596 96.724 85.2712 96.6046 85.3417L96.8219 85.2134C96.8811 85.1752 96.9263 85.1187 96.9506 85.0526C96.975 84.9864 96.9772 84.9141 96.957 84.8466L96.8751 84.6087C96.9204 84.7393 96.9554 85.0353 96.9071 85.0987L96.9121 85.0958ZM99.7643 72.6433L100.103 72.9922C100.199 73.0924 100.179 73.2316 100.061 73.3025M95.6489 81.0765L95.4876 80.6025L94.8853 78.8016L95.5674 80.8407L95.6485 81.0758L95.6489 81.0765ZM91.0864 76.8211L91.2183 77.2145L92.7176 81.6968L91.1392 76.9759L91.0868 76.8218L91.0864 76.8211Z" fill="white"/>
<path d="M100.104 72.9918L99.765 72.6429L99.2438 72.0932C98.6075 71.4568 97.784 71.3572 96.5517 72.0844L90.8771 75.4279C90.8175 75.4658 90.772 75.5222 90.7473 75.5883C90.7227 75.6545 90.7203 75.727 90.7407 75.7946L90.898 76.2619L91.1411 76.9644L94.2191 86.1674C94.2626 86.2996 94.3355 86.4416 94.3875 86.4966C94.4398 86.5515 94.6938 86.4592 94.8129 86.389L96.606 85.3309C96.7254 85.2604 96.8632 85.1496 96.9135 85.085C96.9637 85.02 96.925 84.7353 96.8814 84.5946L95.5754 80.8264L94.2906 76.9859C94.271 76.9182 94.2737 76.846 94.2984 76.78C94.3231 76.714 94.3685 76.6577 94.4278 76.6196L100.068 73.2876C100.187 73.2173 100.207 73.0775 100.111 72.9773L100.104 72.9918ZM105.194 65.0216L104.761 65.2796L102.955 66.3452C102.891 66.3884 102.837 66.4445 102.797 66.51C102.757 66.5755 102.731 66.6488 102.721 66.725L102.18 74.9318C102.171 75.0701 102.085 75.1011 101.99 75.0014L100.935 73.8858C100.884 73.836 100.819 73.8039 100.749 73.7939C100.679 73.784 100.607 73.7968 100.545 73.8306L97.9779 75.3453C97.8581 75.416 97.8423 75.5514 97.9432 75.647L101.466 79.0019C101.566 79.0969 101.68 79.2844 101.72 79.4177L102.362 81.6684C102.368 81.6986 102.381 81.7268 102.401 81.7504C102.421 81.774 102.446 81.7922 102.475 81.8033C102.504 81.8145 102.534 81.8185 102.565 81.8148C102.596 81.8111 102.625 81.7999 102.65 81.7822L105.193 80.2814C105.253 80.2427 105.299 80.1862 105.326 80.1199C105.352 80.0536 105.357 79.9808 105.34 79.9114L104.698 77.6611C104.657 77.5004 104.643 77.3336 104.656 77.1684L106.068 64.7332C106.084 64.5952 105.999 64.5406 105.88 64.6123L105.203 65.0184L105.194 65.0216ZM87.775 82.1047C87.8349 82.2408 87.7719 82.4068 87.6521 82.4775L84.3962 84.3988C84.2839 84.4651 84.1816 84.4225 84.1424 84.3168L84.1346 84.2982L84.1169 84.2343C83.947 83.2201 84.2532 82.3079 85.4428 81.6059C86.7828 80.8152 87.4307 81.316 87.774 82.1053L87.775 82.1047ZM84.6031 78.9115C80.4254 81.3767 80.9318 84.4969 81.887 87.3839C82.8707 90.3208 84.3587 92.7325 88.6817 90.1815L89.367 89.7771L89.8936 89.4637L92.6348 87.8239C92.6935 87.7855 92.7383 87.7292 92.7623 87.6633C92.7862 87.5973 92.7882 87.5254 92.7678 87.4583L91.9805 85.1693C91.9356 85.0379 91.8012 84.9885 91.6814 85.0591L87.7948 87.3526C86.2496 88.2644 85.5476 88.1248 85.004 86.8177L91.2171 83.1515C91.2667 83.1214 91.3061 83.0771 91.3303 83.0244C91.3545 82.9716 91.3623 82.9128 91.3527 82.8556C91.3495 82.834 91.3438 82.8128 91.3358 82.7925C90.2055 78.7701 88.5576 76.5816 84.606 78.9134L84.6031 78.9115ZM67.0646 94.3071L67.1287 94.5496L67.6412 96.4896L68.1528 98.4287C68.1679 98.4988 68.1614 98.5719 68.1341 98.6382C68.1068 98.7045 68.0601 98.7609 68 98.8001L65.5159 100.266C63.6323 101.377 62.3044 100.175 61.4807 97.7313C60.6272 95.2388 60.7116 93.3257 62.4829 92.0923C64.9036 90.4067 66.4613 91.8896 67.0642 94.3064L67.0646 94.3071ZM70.9006 96.917C70.9006 96.917 70.3934 93.3842 69.6914 91.5842C68.7564 89.1718 65.7757 86.6332 61.5247 89.1417C57.2975 91.6361 57.2582 95.7622 58.515 99.4909C59.7814 103.236 62.4232 105.617 66.6115 103.115L73.0112 99.3069C73.0708 99.2675 73.1169 99.2108 73.1433 99.1443C73.1696 99.0778 73.1748 99.0048 73.1583 98.9353L72.4837 96.5576C72.4776 96.5276 72.4642 96.4995 72.4448 96.4759C72.4253 96.4523 72.4003 96.4338 72.372 96.4221C72.3435 96.4103 72.3125 96.4059 72.2819 96.4094C72.2512 96.4129 72.222 96.4241 72.1969 96.442L71.1586 97.046C71.0566 97.1053 70.9606 97.074 70.921 96.9808C70.9137 96.9627 70.9084 96.944 70.9052 96.9248L70.9006 96.917Z" fill="white"/>
<path d="M90.702 82.6682C90.7243 82.706 90.7307 82.7511 90.7197 82.7935C90.7088 82.836 90.6814 82.8724 90.6436 82.8947C90.6058 82.917 90.5607 82.9234 90.5183 82.9124C90.4758 82.9015 90.4394 82.8741 90.4171 82.8363C90.3948 82.7985 90.3884 82.7534 90.3994 82.711C90.4103 82.6685 90.4377 82.6321 90.4755 82.6098C90.5133 82.5875 90.5584 82.5811 90.6009 82.5921C90.6433 82.603 90.6797 82.6304 90.702 82.6682Z" fill="white"/>
</g>
<defs>
<linearGradient id="paint0_linear_76_92" x1="0.305176" y1="51.126" x2="137.249" y2="86.4291" gradientUnits="userSpaceOnUse">
<stop stop-color="#FF5C00"/>
<stop offset="1" stop-color="#FF0F00"/>
</linearGradient>
<clipPath id="clip0_76_92">
<rect width="100" height="100" fill="white" transform="translate(0.305176 51.126) rotate(-30.5443)"/>
</clipPath>
</defs>
</svg>
