<svg width="178" height="178" viewBox="0 0 178 178" fill="none" xmlns="http://www.w3.org/2000/svg">
<path d="M165.188 31.6633L51.3466 1.15959C42.7761 -1.13685 33.9596 3.95337 31.6632 12.5238L1.15949 126.365C-1.13695 134.936 3.95327 143.752 12.5237 146.048L126.365 176.552C134.935 178.849 143.752 173.758 146.048 165.188L176.552 51.3467C178.848 42.7762 173.758 33.9597 165.188 31.6633ZM84.3924 131.128C80.6141 145.228 70.6102 149.446 58.5469 146.214C47.6479 143.293 42.8492 135.976 41.4436 128.285L54.3305 124.563C55.4511 128.919 56.5337 132.641 61.2232 133.897C65.6863 135.093 69.0002 134.109 70.8287 127.285L83.2295 81.0049L96.8452 84.6532L84.3924 131.128ZM111.102 160.295C98.4561 156.907 91.8856 148.699 90.0221 139.742L102.831 136.311C104.468 141.845 107.339 146.393 114.034 148.187C119.661 149.694 124.038 147.851 125.086 143.938C126.334 139.281 123.089 136.644 117.584 132.222L114.578 129.857C105.864 123.05 100.776 116.037 103.748 104.944C106.487 94.724 116.361 89.0505 128.489 92.3002C137.156 94.6227 142.56 99.2942 144.909 108.381L132.481 112.331C131.27 107.535 129.189 105.209 125.276 104.161C121.298 103.095 118.1 104.942 117.216 108.24C116.124 112.315 118.205 114.641 123.374 118.764L126.38 121.129C136.632 129.18 141.772 135.999 138.722 147.384C135.446 159.609 124.006 163.753 111.102 160.295Z" fill="#FFD233"/>
</svg>
