<svg width="205" height="205" viewBox="0 0 205 205" fill="none" xmlns="http://www.w3.org/2000/svg">
<g clip-path="url(#clip0_76_109)">
<path d="M99.4576 17.5781L30.4462 57.4219C13.6312 67.13 7.86999 88.6312 17.5781 105.446L57.4219 174.458C67.13 191.273 88.6312 197.034 105.446 187.326L174.458 147.482C191.273 137.774 197.034 116.273 187.326 99.4576L147.482 30.4462C137.774 13.6312 116.273 7.87 99.4576 17.5781Z" fill="#242938"/>
<path fill-rule="evenodd" clip-rule="evenodd" d="M143.636 98.7488C143.905 98.2858 144.047 97.7604 144.049 97.2251C144.05 96.6899 143.911 96.1637 143.645 95.6992L134.862 80.377C134.596 79.9127 134.456 79.3864 134.458 78.8511C134.459 78.3159 134.601 77.7905 134.87 77.3277L140.412 67.7786C140.818 67.0797 141.484 66.5704 142.265 66.3622C143.046 66.1541 143.878 66.2642 144.578 66.6683C145.041 66.9361 145.426 67.321 145.694 67.7845L161.747 95.59C162.016 96.0549 162.157 96.5824 162.156 97.1193C162.155 97.6562 162.013 98.1834 161.743 98.6477L140.83 134.684C140.563 135.144 140.18 135.526 139.72 135.793C139.259 136.059 138.737 136.201 138.205 136.204L105.541 136.336C105.003 136.338 104.474 136.198 104.008 135.931C103.541 135.663 103.154 135.277 102.884 134.811L94.7898 120.791C94.7807 120.775 94.7933 120.753 94.8134 120.752C94.8178 120.752 94.8221 120.751 94.826 120.749C94.8298 120.747 94.833 120.744 94.8352 120.74C94.8374 120.736 94.8384 120.732 94.8383 120.728C94.8381 120.723 94.8368 120.719 94.8343 120.716L94.8253 120.7C94.8191 120.689 94.8185 120.675 94.8263 120.664L108.342 97.3698C108.354 97.3486 108.329 97.3244 108.308 97.3364C108.303 97.3395 108.296 97.3403 108.29 97.3386C108.283 97.337 108.278 97.3329 108.275 97.3274L100.378 83.5586C100.112 83.0924 99.7273 82.7048 99.2632 82.435C98.7992 82.1653 98.2721 82.0228 97.7353 82.0222C97.1986 82.0211 96.6711 82.1616 96.206 82.4295C95.741 82.6974 95.3548 83.0832 95.0865 83.5481L85.0566 100.887C84.7886 101.349 84.404 101.733 83.9412 102C83.4783 102.268 82.9534 102.409 82.419 102.41L62.3283 102.433C61.793 102.433 61.2673 102.574 60.8038 102.842C60.3404 103.11 59.9556 103.495 59.6881 103.959C59.4205 104.422 59.2797 104.948 59.2797 105.484C59.2797 106.019 59.4205 106.545 59.688 107.008L74.0315 131.852C74.2993 132.315 74.4408 132.84 74.4418 133.375C74.4428 133.909 74.3033 134.435 74.0372 134.899C73.771 135.362 73.3877 135.748 72.9256 136.017C72.4634 136.286 71.9387 136.429 71.404 136.431L60.2746 136.479C59.7356 136.481 59.2056 136.341 58.7385 136.072C58.2714 135.803 57.8838 135.416 57.6151 134.948L32.619 91.4828C32.3527 91.0193 32.2128 90.494 32.2134 89.9594C32.2139 89.4249 32.3549 88.8999 32.6221 88.4369C32.8894 87.974 33.2735 87.5894 33.7362 87.3216C34.1988 87.0538 34.7236 86.9122 35.2582 86.911L73.425 86.8257C73.9584 86.8246 74.4821 86.6836 74.9441 86.4169C75.406 86.1502 75.7899 85.7671 76.0576 85.3058L95.2073 52.2994C95.6131 51.5997 96.2801 51.0898 97.0618 50.8819C97.8435 50.6739 98.6757 50.785 99.3755 51.1905C99.8387 51.4583 100.223 51.844 100.491 52.3078L125.567 95.7408C125.835 96.2054 125.976 96.7326 125.976 97.2691C125.976 97.8057 125.834 98.3327 125.566 98.797L115.549 116.103C115.28 116.568 115.139 117.096 115.139 117.634C115.14 118.171 115.282 118.698 115.551 119.163C115.821 119.628 116.209 120.013 116.675 120.28C117.141 120.547 117.67 120.686 118.207 120.683L129.205 120.616C129.737 120.613 130.258 120.471 130.718 120.204C131.178 119.938 131.56 119.555 131.827 119.095L143.636 98.7488ZM122.878 58.7847C123.149 59.2517 123.538 59.6386 124.007 59.9062C124.475 60.1738 125.006 60.3124 125.546 60.3081C126.086 60.3036 126.615 60.156 127.079 59.8803C127.543 59.6047 127.925 59.2109 128.187 58.7391L133.37 49.4042C133.625 48.9437 133.758 48.4248 133.753 47.8981C133.749 47.3713 133.609 46.8546 133.346 46.398L127.749 36.7034C127.546 36.3546 127.277 36.0494 126.955 35.8054C126.634 35.5614 126.268 35.3835 125.877 35.2818C125.487 35.1802 125.08 35.1569 124.681 35.2133C124.281 35.2697 123.897 35.4047 123.55 35.6104C123.086 35.886 122.703 36.2796 122.441 36.7511L117.259 46.086C117.003 46.5465 116.87 47.0655 116.875 47.5924C116.879 48.1194 117.019 48.6363 117.283 49.0927L122.879 58.7868L122.878 58.7847Z" fill="#007FFF"/>
</g>
<defs>
<clipPath id="clip0_76_109">
<rect width="150" height="150" fill="white" transform="translate(0 75) rotate(-30)"/>
</clipPath>
</defs>
</svg>
