<svg width="125" height="125" viewBox="0 0 125 125" fill="none" xmlns="http://www.w3.org/2000/svg">
<g clip-path="url(#clip0_76_113)">
<path d="M74.145 13.5247L77.8564 14.6194C87.4181 17.8753 96.0247 23.961 102.063 32.0839C107.803 39.7137 111.303 49.0118 111.956 58.5461C112.373 63.8716 111.788 69.2322 110.596 74.429L109.665 77.5845C106.859 85.9553 101.943 93.6498 95.2837 99.4743C87.7796 106.135 78.2429 110.519 68.2703 111.73C61.7386 112.533 55.1128 112.047 48.7683 110.299L47.1617 109.825C38.4105 107.088 30.4286 101.909 24.4194 94.9787C17.6019 87.1743 13.2779 77.2064 12.3212 66.8795C11.7625 61.2566 12.2606 55.5634 13.5231 50.0647L14.6187 46.3502C18.1767 35.6787 25.4024 26.2281 34.895 20.1602C42.7083 15.094 51.9599 12.2596 61.2757 12.1213C65.6044 12.0402 69.9188 12.6122 74.145 13.5247ZM38.8729 33.6848C36.1644 42.7849 33.493 51.895 30.8079 60.9987C31.877 61.323 32.9486 61.6391 34.0224 61.9558C36.272 54.1214 38.709 46.3447 40.859 38.4834C41.0183 39.2691 41.1403 40.065 41.3585 40.8356C43.9053 49.3312 46.3343 57.8589 48.8836 66.3487C50.191 66.7156 51.4934 67.0997 52.7897 67.5041C55.475 58.3915 58.1595 49.2787 60.8552 40.1692C59.7967 39.8458 58.736 39.5297 57.6732 39.2209C55.4485 46.9706 53.0096 54.6571 50.9268 62.4397C48.3387 53.2445 45.6725 44.0742 43.0078 34.8987C41.6325 34.4838 40.2542 34.0792 38.8729 33.6848ZM67.9825 42.2615C65.1984 51.345 62.6046 60.4845 59.8857 69.584C64.7365 71.0024 69.5754 72.4614 74.4348 73.8588C74.7085 72.8665 75.0058 71.8809 75.3262 70.9027C71.5741 69.783 67.8111 68.6919 64.0584 67.5631C64.9334 64.392 65.9176 61.2483 66.8213 58.0849C70.1319 58.9978 73.4053 60.0365 76.7079 60.9626C76.9819 60.0032 77.2642 59.0463 77.5406 58.0869C74.2221 57.223 70.9786 56.1075 67.6737 55.1865C68.5718 52.1746 69.4678 49.1588 70.358 46.1404C73.8792 47.179 77.4047 48.2025 80.9158 49.2641C81.1973 48.2875 81.4918 47.3114 81.7911 46.3408C77.1899 44.9707 72.5835 43.6185 67.9825 42.2615ZM84.9071 47.2973C84.6303 48.2468 84.3514 49.1925 84.0755 50.139C86.698 50.88 89.2758 51.7616 91.9058 52.477C89.4877 60.612 87.1089 68.752 84.6984 76.8835C85.7829 77.2384 86.8862 77.5573 88.0079 77.7863C89.2422 73.2698 90.7458 68.8293 91.8641 64.281C92.5108 62.2733 93.0037 60.2236 93.7397 58.2447C94.2921 56.6646 94.4774 54.9786 95.1317 53.4285C97.756 54.2408 100.4 54.9945 103.034 55.7714C103.304 54.8104 103.606 53.8582 103.937 52.9165C97.6141 50.9661 91.2663 49.1028 84.9071 47.2973ZM23.1723 54.7694C21.4898 55.0143 20.7051 57.3185 21.9496 58.5034C22.9777 59.7677 25.2575 59.1768 25.6497 57.6317C26.1923 56.1594 24.7488 54.362 23.1723 54.7694ZM41.6964 72.6861C37.7248 74.3403 36.0555 80.141 38.9217 83.4747C40.5463 85.3345 43.1971 85.8304 45.5597 85.6077C45.706 85.145 45.8538 84.6852 46.0083 84.2249C43.6985 84.6799 40.8337 84.0671 39.6426 81.8506C38.1362 78.7697 39.9699 74.3973 43.3876 73.6077C45.3016 73.2241 47.2467 74.0747 48.6446 75.3528C48.7852 74.8567 48.9333 74.3628 49.0822 73.8692C47.0044 72.3612 44.1251 71.56 41.6964 72.6861ZM53.9913 78.5198C52.5264 78.2669 50.9057 78.6034 49.8641 79.7184C48.3735 81.3118 47.7364 83.8696 48.7523 85.874C49.7695 88.045 52.6944 88.9264 54.8162 87.9045C57.1435 86.7109 58.2682 83.6542 57.4088 81.2048C56.9086 79.7304 55.4389 78.8449 53.9913 78.5198ZM66.7929 84.5134C64.9118 86.3069 64.1924 89.6517 65.9546 91.7687C67.3208 93.1654 69.4672 93.4824 71.3235 93.1014C71.4568 92.6382 71.5994 92.1768 71.7551 91.7235C70.2545 92.1524 68.3948 92.2441 67.2283 91.0212C66.4069 90.1909 66.4502 88.9533 66.5952 87.8818C68.7582 88.488 70.919 89.0903 73.0746 89.7326C73.4224 88.3462 73.8468 86.7886 73.1612 85.4346C72.0504 83.1277 68.5488 82.7246 66.7929 84.5134ZM61.0042 80.9034L58.3503 89.9014C58.8389 90.0455 59.3335 90.1914 59.8279 90.3405C60.3303 88.7008 60.7691 87.0391 61.3025 85.4044C61.5952 84.4563 62.2627 83.6041 63.169 83.1742C63.903 82.8979 64.6397 83.388 65.3223 83.6089C65.4539 83.1297 65.588 82.6528 65.7254 82.1786C64.4698 81.4841 63.0815 81.9299 62.0788 82.8274C62.2038 82.3486 62.3287 81.8699 62.4592 81.3969C61.973 81.2339 61.4866 81.0685 61.0042 80.9034Z" fill="#623697"/>
<path d="M52.5997 79.8445C54.0155 79.6063 55.7049 80.4264 56.0178 81.9115C56.3876 83.5576 55.8187 85.4228 54.5425 86.5353C52.8983 87.9124 50.0062 86.6521 49.8185 84.5377C49.5623 82.6229 50.568 80.2927 52.5997 79.8445ZM67.0925 86.7181C67.4748 85.5488 68.643 84.6203 69.9043 84.7129C70.6719 84.8057 71.4741 85.1816 71.8069 85.92C72.1527 86.6035 72.0373 87.384 71.9578 88.1148C70.3366 87.6464 68.7283 87.1371 67.0925 86.7181Z" fill="#623697"/>
</g>
<defs>
<clipPath id="clip0_76_113">
<rect width="100" height="100" fill="white" transform="translate(28.2893) rotate(16.433)"/>
</clipPath>
</defs>
</svg>
