<svg width="171" height="171" viewBox="0 0 171 171" fill="none" xmlns="http://www.w3.org/2000/svg">
<g clip-path="url(#clip0_76_88)">
<path d="M145.381 47.8516L87.8718 14.6484C73.8594 6.55833 55.9417 11.3594 47.8516 25.3718L14.6484 82.8813C6.55833 96.8938 11.3594 114.812 25.3718 122.902L82.8813 156.105C96.8938 164.195 114.812 159.394 122.902 145.381L156.105 87.8718C164.195 73.8594 159.394 55.9417 145.381 47.8516Z" fill="#242938"/>
<path d="M58.8131 54.3919L70.8258 61.3274C74.3346 63.3927 76.3026 65.8843 76.7309 68.8007C77.1592 71.7171 76.1032 74.7531 73.5639 77.9092C72.4404 79.3726 71.08 80.6587 69.4829 81.7686C67.9155 82.8956 66.1663 83.7182 64.2334 84.2361C61.842 84.9269 59.6742 84.9902 57.7292 84.4254C55.7842 83.8607 53.9003 83.0515 52.0777 81.9992L46.6989 78.8938L40.0786 86.4269L33.8481 82.8297L58.8131 54.3919ZM61.1073 62.5296L50.6542 74.4239C50.8164 74.557 50.9869 74.6758 51.1662 74.7793L51.7937 75.1416C54.6453 76.8275 57.1998 77.9245 59.4572 78.4306C61.7317 78.9071 64.2765 77.4681 67.0903 74.1119C69.4397 71.2848 69.9458 69.1661 68.608 67.7566C67.2999 66.3642 65.4426 64.9932 63.0347 63.6424C62.659 63.465 62.3068 63.2819 61.9778 63.092L61.0366 62.5485L61.1073 62.5296ZM92.0997 62.1948L98.2853 65.7661L91.5943 73.3181L97.1525 76.5271C100.166 78.3469 102.074 80.2855 102.879 82.3433C103.713 84.4182 102.85 86.9486 100.29 89.9329L88.669 103.125L82.3937 99.5022L93.4919 86.9045C94.6532 85.5825 95.1759 84.4702 95.0604 83.5668C94.9448 82.6634 94.095 81.7544 92.511 80.8398L87.5615 77.9225L73.2497 94.2229L67.064 90.6516L92.0997 62.1948ZM111.953 85.072L123.965 92.0076C127.474 94.0728 129.442 96.5645 129.87 99.4809C130.299 102.397 129.243 105.433 126.703 108.589C125.58 110.053 124.22 111.339 122.623 112.449C121.055 113.576 119.306 114.398 117.373 114.916C114.982 115.607 112.814 115.67 110.869 115.106C108.924 114.541 107.04 113.732 105.217 112.679L99.8385 109.574L93.2182 117.107L86.9878 113.51L111.953 85.072ZM114.247 93.2098L103.794 105.104C103.956 105.237 104.126 105.356 104.306 105.459L104.933 105.822C107.785 107.508 110.339 108.605 112.597 109.111C114.871 109.587 117.416 108.148 120.23 104.792C122.579 101.965 123.085 99.8463 121.748 98.4368C120.439 97.0444 118.582 95.6733 116.174 94.3226C115.799 94.1451 115.446 93.9621 115.117 93.7722L114.176 93.2287L114.247 93.2098Z" fill="white"/>
</g>
<defs>
<clipPath id="clip0_76_88">
<rect width="125" height="125" fill="white" transform="translate(62.5) rotate(30)"/>
</clipPath>
</defs>
</svg>
