<svg width="172" height="172" viewBox="0 0 172 172" fill="none" xmlns="http://www.w3.org/2000/svg">
<g clip-path="url(#clip0_76_101)">
<path d="M83.7305 15.4976L26.221 48.7007C12.2085 56.7908 7.40745 74.7085 15.4976 88.721L48.7007 146.23C56.7908 160.243 74.7085 165.044 88.721 156.954L146.23 123.751C160.243 115.661 165.044 97.7429 156.954 83.7305L123.751 26.221C115.661 12.2085 97.7429 7.40745 83.7305 15.4976Z" fill="#CD6799"/>
<mask id="mask0_76_101" style="mask-type:luminance" maskUnits="userSpaceOnUse" x="25" y="30" width="122" height="113">
<path d="M25.6287 78.9248L110.201 30.0967L146.8 93.4878L62.2275 142.316L25.6287 78.9248Z" fill="white"/>
</mask>
<g mask="url(#mask0_76_101)">
<path d="M119.442 73.3417C116.502 75.0595 114.35 77.2494 112.81 79.538C111.122 78.4335 109.532 77.4985 108.805 76.5598C107.964 75.4602 107.36 74.8415 106.725 73.3142C106.09 71.7868 105.757 69.2833 105.652 69.1379C105.548 68.992 104.959 68.3649 103.252 69.3297C101.545 70.295 100.274 71.4812 100.363 72.0272C100.451 72.5727 100.715 73.7788 101.106 74.9535C101.703 76.6668 101.782 83.9702 101.674 87.882C100.452 87.0849 99.3874 86.3818 98.8245 85.657C97.9839 84.5574 97.3798 83.9387 96.7449 82.4114C96.1101 80.884 95.7762 78.38 95.6715 78.2347C95.5671 78.0891 94.9782 77.4617 93.2712 78.4269C91.5639 79.3917 90.293 80.5782 90.382 81.1239C90.4706 81.6699 90.8916 82.8268 91.1245 84.0505C91.3581 85.2745 92.5485 96.8559 92.8402 99.8573C92.959 101.071 93.0507 102.288 93.1153 103.506C93.1153 103.506 93.1265 103.562 93.1248 103.666C93.1446 104.048 93.1595 104.43 93.1694 104.813L93.1785 104.829C93.1879 105.379 93.1632 105.908 93.0397 105.979C92.9471 106.033 92.1359 105.019 91.5554 103.337C90.328 99.7843 88.9244 93.9664 88.8112 93.8056C88.7578 93.713 88.5363 92.6878 87.0426 92.9532C85.5797 93.2007 85.5756 94.1915 85.4673 94.254C85.3595 94.3162 85.4337 94.6235 85.4337 94.6235C85.4337 94.6235 83.5503 88.2589 79.6443 90.514C77.2048 91.9224 75.3813 96.5364 75.1049 99.9074C73.8049 102.033 72.508 104.161 71.2144 106.291C70.5982 107.326 69.9507 108.379 69.3466 109.366C69.2492 109.34 69.1428 109.298 69.0454 109.272C61.4064 106.951 50.6095 108.43 47.0669 101.439C45.7797 98.888 42.8852 91.9136 54.1328 74.9215C63.4331 61.0095 74.8021 56.8125 78.8659 59.7155C84.6731 63.8558 82.5934 78.9716 70.0355 88.2392C65.2394 91.77 61.4125 91.3447 60.3057 90.9959C59.1494 90.6339 59.0146 90.6504 58.8411 90.9563C58.5425 91.4371 59.2214 91.9715 59.6074 92.2837C60.6154 93.1017 63.3367 94.0007 66.6568 93.2982C69.5908 92.675 75.8549 89.6555 81.5041 82.6473C87.8221 74.8003 89.1286 62.3739 83.0268 56.1196C76.8626 49.7564 63.0943 54.4325 53.8049 65.333C48.2835 71.8146 42.9959 80.0546 40.5005 88.247C37.5389 97.9857 39.5417 103.807 41.2243 105.759C47.2141 112.675 60.8674 111.544 67.3255 112.818C67.1807 113.066 67.0424 113.29 66.9263 113.481C65.3952 115.785 59.6818 124.786 60.2554 130.486C60.899 136.949 65.7068 139.072 67.7672 138.541C74.1613 136.887 78.2406 130.868 78.6617 124.573C79.0823 118.278 75.3071 112.594 72.3421 110.704C72.3073 110.679 72.2683 110.659 72.2269 110.647C72.5957 110.002 72.9705 109.333 73.3393 108.687C74.0125 107.494 74.7112 106.315 75.435 105.151C75.7393 106.89 76.3425 108.826 77.5836 111.404C79.028 114.44 82.3915 117.52 84.8063 118.102C85.8754 118.349 86.7026 117.893 87.2278 117.589C89.0495 116.538 88.9942 114.552 88.8711 112.236C88.7166 109.401 88.2497 106.274 88.2497 106.274C88.2497 106.274 90.9745 113.883 94.3709 111.922C95.6061 111.208 95.9295 108.881 96.0132 107.742L96.022 107.757C96.022 107.757 96.0262 107.693 96.0255 107.549C96.033 107.277 96.0386 107.109 96.0386 107.109L96.0208 107.078C96.0161 105.928 95.9953 103.326 95.7666 99.1144C95.4727 93.6853 94.4956 87.2508 94.4956 87.2508C94.4956 87.2508 95.4205 88.4251 97.2836 90.19C98.3762 91.227 99.9415 92.1551 101.325 93.1264C101.233 94.1064 101.147 94.6702 101.147 94.6702L101.171 94.6771C101.073 95.4336 100.97 96.2543 100.812 97.0864C100.288 100.065 99.6096 103.524 99.715 104.349C99.8453 105.323 100.252 105.85 101.137 105.957C101.781 106.038 102.61 105.62 103.402 105.102C104.852 104.12 105.704 103.134 106.095 102.6C106.744 101.834 107.443 100.834 107.955 99.6529C108.903 97.4795 108.899 95.1554 107.478 92.9085C106.701 91.6693 105.553 90.6444 104.358 89.7492C104.387 89.444 104.401 89.1479 104.431 88.8427C104.839 83.5227 104.445 78.1714 104.445 78.1714C104.445 78.1714 105.37 79.3458 107.233 81.1111C108.166 82.0133 109.476 82.8213 110.692 83.6428C109.387 87.0517 109.211 90.2408 109.544 92.0659C110.194 95.4373 111.681 96.2662 113.286 95.7308C114.015 95.4954 114.763 94.6521 115.273 93.9662C115.977 93.1894 116.72 92.1223 117.282 90.8504C118.23 88.6773 118.84 86.0608 117.419 83.8139C116.767 82.7912 115.891 81.9169 114.926 81.1363C116.511 79.0686 118.921 77.0389 122.58 75.4614C130.429 72.0833 134.527 75.8305 135.363 77.9211C136.199 80.011 135.262 81.9524 134.939 82.5709C134.617 83.1892 134.51 83.3951 134.69 83.6C134.948 83.9039 135.186 83.7457 135.582 83.4345C136.122 82.979 138.542 79.6471 136.631 76.016C134.242 71.3432 127.057 68.883 119.442 73.3417ZM73.7864 125.185C72.8803 129.249 70.0635 132.213 68.1063 132.211C66.0054 132.209 64.3589 127.931 65.7322 123.392C66.5642 120.627 67.9929 117.682 68.9904 115.809C69.2209 115.388 69.5674 114.776 69.9776 114.025C70.0502 113.9 70.0941 113.834 70.0941 113.834L70.3307 113.388C73.7444 116.77 74.7357 120.911 73.7864 125.185ZM84.5708 102.861C84.9162 105.421 86.1982 111.741 84.9481 112.072C83.8792 112.359 80.9906 108.675 80.012 103.95C79.5259 101.575 79.5581 98.3862 79.8415 96.9873C80.3135 94.7385 81.4949 93.3979 82.1977 93.795C83.1002 94.3238 84.3472 101.261 84.5708 102.861ZM103.269 101.412C103.021 101.802 102.752 102.121 102.545 102.118C102.401 102.119 102.521 101.72 102.521 101.72C102.521 101.72 103.217 98.6829 103.426 97.3688C103.539 96.6031 103.677 95.7003 103.801 94.7026L103.917 94.9034C105.28 97.2655 103.914 100.175 103.269 101.412ZM113.081 92.3084C112.712 92.2748 112.402 91.6305 112.168 89.1925C112.07 88.24 112.143 86.5107 112.812 84.4975C113.252 84.9028 113.636 85.3185 113.879 85.7754C115.584 88.7641 114.095 91.1056 113.081 92.3084Z" fill="white"/>
</g>
</g>
<defs>
<clipPath id="clip0_76_101">
<rect width="125" height="125" fill="white" transform="translate(0.849121 63.3491) rotate(-30)"/>
</clipPath>
</defs>
</svg>
