<svg width="168" height="168" viewBox="0 0 168 168" fill="none" xmlns="http://www.w3.org/2000/svg">
<g clip-path="url(#clip0_160_23)">
<path d="M98.8481 20.7706L98.8474 20.7724C98.478 20.5524 91.1769 20.1421 86.389 20.0665C79.9237 19.9701 74.7362 20.2929 71.309 21.0247C70.1998 21.2672 68.7341 21.8319 68.1042 22.2379L68.106 22.2158C68.0626 22.2489 68.022 22.2854 67.9846 22.325C67.9487 22.3532 67.9031 22.3838 67.8769 22.4097C67.7214 22.5727 67.598 22.7635 67.5129 22.9721L67.5483 23.0524C67.483 23.2495 67.4361 23.4827 67.4311 23.7577C67.4206 24.4269 67.8022 25.4105 68.2671 26.4491C68.2671 26.4491 72.9124 37.56 73.4063 39.0749C75.6403 46.0036 75.4276 51.8067 72.681 58.7658C70.9093 63.2338 68.4166 66.7651 64.4129 70.39C57.2637 76.909 45.6392 82.5172 29.3539 87.3008L29.5633 87.317C29.4523 87.3481 29.3038 87.3958 29.1971 87.4243C27.2672 87.9515 24.2172 89.1815 22.5532 90.0749C20.0657 91.418 17.8669 93.0304 16.609 94.4538C14.3548 97.0326 13.5482 100.268 14.2479 103.87C15.1583 108.468 18.4441 114.162 23.0269 119.033C25.3598 121.521 29.5001 125.196 32.7531 127.651C38.145 131.753 49.1405 138.384 55.4708 141.368C56.7491 141.975 58.4959 142.717 58.5908 142.694C58.7714 142.665 60.5809 141.184 62.748 139.306C70.1387 132.909 76.2117 126.542 80.5155 120.728C83.1092 117.199 86.0608 112.284 89.1716 106.301C90.0321 104.624 92.5483 98.8515 93.275 96.8449C94.4778 93.5672 95.3008 90.8431 95.9379 88.1041C95.9777 87.9156 96.031 87.7302 96.0975 87.5494C112.245 89.3829 129.705 92.2472 140.898 95.1056L142.627 95.5461L142.544 95.0458C142.058 92.228 141.661 90.4393 141.105 88.4766C139.485 82.7789 136.793 77.5726 132.923 72.5594C127.593 65.6829 119.847 58.7915 109.362 51.6614C107.386 50.3166 102.994 47.481 99.3928 45.2561L99.3072 44.4602C98.7786 39.8568 98.4156 34.273 98.3784 30.5944C98.3506 27.7401 98.5334 24.5332 98.83 22.3014C99.0417 20.9593 99.0382 20.8731 98.8481 20.7706ZM98.1764 21.5586L98.1948 21.5664C98.2036 21.5919 98.0617 22.1227 97.8835 22.7413C97.1265 25.3663 96.6565 28.009 96.4243 30.9842C96.2502 33.2245 96.2952 33.1187 95.6271 32.561C94.0205 31.2893 86.4702 26.4182 80.916 23.0886C80.0236 22.5627 79.2743 22.0965 79.2821 22.0781C79.2418 21.9762 84.5356 21.554 86.8224 21.473C89.7422 21.3882 97.6387 21.4355 98.1764 21.5586ZM77.5906 22.2437L78.1878 22.7713C81.423 25.6619 90.1528 31.521 95.2131 34.1768C95.7795 34.4805 96.256 34.7449 96.2726 34.752C96.2832 34.7782 95.6728 34.8339 94.9008 34.8633C91.8316 35.0541 88.3886 35.4217 85.9552 35.799C85.4013 35.8853 84.9023 35.9448 84.6645 35.9546L83.0096 34.9091L82.0298 32.551C80.759 29.5178 79.4695 26.4924 78.1615 23.475L77.5906 22.2437ZM76.6419 22.4946L77.8225 26.7015C78.4604 29.0153 79.1314 31.2997 79.275 31.8029C79.4024 32.2472 79.4946 32.5721 79.5009 32.6596C77.8519 31.5926 76.091 30.4411 74.7585 29.5011C73.7867 28.8143 71.9416 27.4619 70.5712 26.2276C70.433 26.0928 70.274 25.9427 70.1231 25.7992L70.2033 25.6105C70.7301 24.4219 73.003 23.2821 76.3423 22.5552L76.6419 22.4946ZM96.1518 35.8339C96.1691 35.834 96.1809 35.8405 96.187 35.8532C96.2579 35.8833 96.2781 36.0788 96.287 36.6509C96.3262 38.2463 96.6866 42.6522 96.8548 43.5451L96.873 43.6659C93.7296 41.7002 90.5954 39.72 87.4705 37.7252C87.613 37.6919 87.7578 37.6692 87.9036 37.6571C90.2161 37.4186 92.6661 36.9027 94.9417 36.2063C95.4952 36.0417 96.0046 35.8811 96.1 35.8586C96.1145 35.8455 96.1325 35.8369 96.1518 35.8339ZM70.815 28.6249C70.8396 28.6158 71.0787 28.8456 71.4005 29.1291C72.133 29.7784 72.8844 30.4061 73.6538 31.0113C74.3448 31.5591 75.0409 32.1005 75.7419 32.6354C76.6979 33.3568 77.4839 33.9874 77.5005 33.9945C77.5733 34.1732 76.9268 40.6981 76.5935 43.1675C76.4695 44.1035 76.3449 44.8927 76.3274 44.8852C76.3012 44.8958 76.2333 44.5084 76.1758 43.9994C75.65 39.4406 73.9355 34.3114 71.3927 29.6919C71.0453 29.1237 70.8063 28.643 70.8141 28.6245L70.815 28.6249ZM78.5463 34.7551C78.5314 34.7901 78.5384 34.7735 78.5569 34.7813C78.647 34.8197 79.0168 35.0387 79.4528 35.3501C82.1956 37.3154 87.1952 40.6614 90.421 42.7276C90.9721 43.0672 91.3892 43.3716 91.3744 43.4066C91.3587 43.4434 91.0943 43.4777 90.7649 43.5062C90.0468 43.5596 87.0767 43.9598 86.0648 44.1599C83.5248 44.6397 81.1366 45.3068 79.3072 46.0451C78.8536 46.2281 78.3983 46.407 77.9415 46.5817C77.9415 46.5817 77.9647 46.233 78.0337 45.8201C78.4459 43.0681 78.6692 38.8276 78.5543 35.7256C78.5324 35.2327 78.5314 34.7901 78.5463 34.7551ZM92.7505 44.2848C92.8407 44.3666 92.7624 45.0494 92.5503 46.538C92.0853 49.4903 91.2051 52.3621 89.9358 55.0679C89.5806 55.8014 89.2491 56.4819 89.1748 56.5569L89.0477 56.7104L88.25 56.0128C86.5995 54.5964 83.883 52.3696 81.5453 50.4917C80.203 49.4366 79.1313 48.54 79.1462 48.5051C79.1919 48.3974 82.3434 47.1257 83.6445 46.6898C86.1194 45.8673 92.6108 44.1635 92.7505 44.2848ZM93.9029 44.9864C93.979 44.9557 100.773 49.3359 103.834 51.3954C106.109 52.9304 109.392 55.2109 109.568 55.3913C109.658 55.4731 109.195 55.5251 107.772 55.5535C102.163 55.6744 97.8547 56.0982 93.3928 56.938C92.2254 57.159 91.2462 57.3307 91.2296 57.3236C91.2112 57.3158 91.4135 56.7911 91.6787 56.1672C93.1184 52.7794 93.8979 49.0686 93.8767 45.6489C93.8728 45.3104 93.878 44.9965 93.9029 44.9864ZM111.267 56.7859C111.298 56.861 110.452 58.2096 109.874 58.9744C108.103 61.3584 104.699 64.5657 101.002 67.3735C100.346 67.8725 99.7791 68.2629 99.7358 68.2652C99.6925 68.2674 99.329 67.7957 98.9115 67.239C97.359 65.1472 95.4876 63.0078 93.3748 60.8462C92.7906 60.2394 92.2716 59.7244 92.2698 59.6802C92.1896 59.5212 99.5467 58.1635 103.351 57.6319C106.381 57.1931 111.227 56.6853 111.267 56.7859ZM112.534 57.5772C112.694 57.6453 115.56 59.9152 117.041 61.1346C120.702 64.1638 124.765 67.9755 127.297 70.7357L128.349 71.8759L127.35 71.7047C118.934 70.2119 111.504 69.4569 104.082 69.3332C103.474 69.3279 102.935 69.3075 102.9 69.2926C102.865 69.2777 103.218 68.9454 103.662 68.5451C107.29 65.3073 110.315 61.6033 112.15 58.1292C112.312 57.7979 112.48 57.5545 112.534 57.5772ZM77.068 51.2629C77.144 51.2322 79.3722 52.8745 80.5512 53.8178C82.3426 55.2528 86.0441 58.5317 85.9995 58.6366C85.9916 58.655 85.334 58.8601 84.5514 59.1165C81.3896 60.0676 78.2703 61.1639 74.4709 62.6231C73.3435 63.0491 72.4022 63.3847 72.3663 63.3694C72.3295 63.3538 72.357 63.2405 72.4351 63.1053C74.1178 60.2836 75.6672 56.3949 76.7561 52.2474C76.9133 51.7242 77.0431 51.273 77.068 51.2629ZM129.132 73.453C129.152 73.5038 127.189 74.8566 125.992 75.5898C124.27 76.6695 121.837 78.0366 116.394 80.986C113.997 82.284 111.604 83.5897 109.215 84.9028C108.122 85.4915 107.215 85.9904 107.196 85.9822C107.179 85.9751 107.084 85.5544 107.001 85.0573C106.277 81.212 105.001 77.576 103.165 74.0177C102.889 73.4682 102.602 72.9244 102.303 72.3867C102.167 72.1603 102.066 71.9488 102.073 71.9304C102.096 71.878 105.681 71.864 108.375 71.9151C113.104 71.9872 119.427 72.3599 124.086 72.8436C126.531 73.084 129.112 73.4019 129.132 73.453ZM130.354 74.3928C130.433 74.4045 130.77 74.8021 131.158 75.3243C134.439 79.6446 137.325 84.6407 139.284 89.3456C139.835 90.675 141.14 94.0905 141.097 94.0928C141.097 94.0928 140.246 93.8179 139.253 93.4796C131.503 90.8599 121.218 88.3612 111.035 86.6654C110.349 86.542 109.743 86.4325 109.707 86.4173C109.672 86.402 110.662 86.0016 111.892 85.5356C119.534 82.6145 123.414 80.3693 128.839 75.7263C129.62 75.0283 130.296 74.4309 130.354 74.3928ZM88.9154 61.5828C89.1413 61.7418 90.9968 63.8135 92.3729 65.4306C93.6373 66.9143 95.5002 69.2218 95.5787 69.3822C95.5897 69.4075 94.5445 69.4892 93.2714 69.56C89.4634 69.787 85.6668 70.1753 81.8917 70.7238C80.816 70.8773 79.9217 71.0026 79.9043 70.9951C79.8325 70.9646 79.8814 70.9007 80.7339 70.2318C83.5816 67.99 86.3518 65.0406 88.5301 61.9449C88.7144 61.7081 88.8621 61.5601 88.9154 61.5828ZM86.4147 61.0242C86.4454 61.1003 84.9074 63.037 84.0242 64.072C82.3304 66.0251 79.8962 68.3372 77.7909 69.9699C77.2936 70.3475 76.5543 70.8982 76.1484 71.2092L75.4002 71.7322L74.8113 70.3465C74.1288 68.7309 73.4801 67.6316 72.5336 66.4915C72.1569 66.0381 71.874 65.6658 71.8888 65.6308C71.9499 65.4872 76.1744 64.0196 79.3589 63.0152C81.648 62.2821 86.384 60.9481 86.4147 61.0242ZM98.1135 72.8803L98.7453 73.8225C100.189 75.9726 101.806 78.7034 102.964 80.9828C103.624 82.2521 104.834 84.8526 105.046 85.4467L105.162 85.7697L103.542 85.5671C94.4126 84.3603 87.2438 83.6922 78.7274 83.2729C77.7774 83.2277 76.977 83.1809 76.9236 83.1582C76.8168 83.1129 76.69 83.1633 79.2471 82.2496C85.7956 79.9182 91.9996 76.9144 97.0809 73.5791L98.1135 72.8803ZM93.9919 72.224C94.013 72.2764 90.1088 74.6777 87.8204 76C85.0865 77.5752 80.331 80.1438 77.1143 81.7659C75.776 82.4402 74.6395 82.9873 74.5953 82.9891C74.5341 82.9848 74.6291 82.7101 74.8035 82.2996C75.7203 80.1424 76.1468 77.6072 76.0176 75.2369C75.9556 74.2424 75.9681 74.0163 76.0962 73.9653C76.564 73.8056 83.0084 73.051 87.0387 72.6797C89.7518 72.442 93.9543 72.1667 93.9919 72.224ZM69.1037 68.173C69.1561 68.1953 69.4746 68.5838 69.8333 69.0307C70.6671 70.0833 71.3995 71.2124 72.0207 72.4028C72.0426 72.4535 71.4192 72.6318 70.6234 72.8195C68.4149 73.312 65.0207 74.1654 63.0147 74.7233C60.9151 75.3044 60.8469 75.3167 61.138 75.1253C63.0814 73.8248 64.1026 73.0581 65.28 72.021C66.3688 71.054 67.3978 70.0217 68.3615 68.93C68.7232 68.4752 69.0678 68.1577 69.1037 68.173ZM73.1137 75.4327C73.21 75.4541 73.2483 75.6605 73.4256 76.5779C73.7975 78.5255 73.7182 80.8931 73.2172 82.6165L73.1022 82.987L70.2575 82.895C65.169 82.7318 60.4262 82.696 57.1672 82.7865C55.9719 82.8295 54.777 82.8824 53.5826 82.9451C52.519 83.019 51.6623 83.0559 51.6697 83.0384C51.6772 83.0209 52.4038 82.8451 53.2936 82.6333C60.2703 81.0303 66.6933 78.7487 71.9563 75.9752C72.5202 75.689 73.0333 75.4224 73.0761 75.4189L73.1137 75.4327ZM70.0617 74.9365L70.0609 74.9383C70.1026 75.0397 67.0912 76.4752 65.1018 77.2933C60.1672 79.3425 55.5935 80.6422 50.2307 81.5207C49.5511 81.6317 48.942 81.7304 48.8738 81.7427C48.719 81.7616 48.9541 81.6508 51.6657 80.4246C53.249 79.72 54.7968 78.9382 56.3034 78.0819C57.3524 77.4955 57.5298 77.4231 58.8058 77.1461C62.2329 76.3686 70.0209 74.8355 70.0617 74.9365ZM93.067 87.2122C92.9058 88.2922 91.3889 93.1553 90.2037 96.297C89.9295 97.0443 89.7057 97.5174 89.6688 97.5018C89.5271 97.4415 87.3762 94.5282 85.8726 92.3724C84.5716 90.4993 82.1594 86.8458 81.7936 86.1699C85.5567 86.4581 89.3149 86.8055 93.067 87.2122ZM79.5854 86.0377C79.7762 86.2383 80.0447 86.5806 80.5666 87.3185C83.2619 91.1803 87.0746 96.0842 88.8202 97.9213C89.3579 98.4866 89.4745 98.409 87.5187 98.8003C83.3341 99.6318 78.3622 100.086 72.4733 100.173C71.4323 100.194 70.5716 100.186 70.5541 100.179C70.5173 100.163 70.815 99.7617 71.1849 99.2876C74.2658 95.3543 76.8546 91.152 78.4213 87.5651C78.8126 86.6698 79.0052 86.2269 79.1248 86.0093L79.5854 86.0377ZM76.444 85.849C76.3443 86.3239 74.7549 89.8773 74.1783 90.8557C72.7421 93.3483 71.091 95.7108 69.2437 97.9161C68.7663 98.4923 68.3505 98.9697 68.3007 98.9898C68.1909 99.0486 66.7641 95.6204 66.3558 94.3516C65.6482 92.156 65.2417 90.0904 65.106 88.1802C65.0432 87.2951 65.0601 85.7648 65.1199 85.4502C68.1942 85.5 71.2678 85.5909 74.3397 85.7229C74.9982 85.7507 75.7607 85.8129 76.444 85.849ZM62.9284 85.4294C62.9447 85.5113 62.9506 85.7941 62.9228 86.1354C62.8344 87.9287 63.1465 90.756 63.6312 92.6885C64.1621 94.8091 65.0218 97.1965 65.8644 98.8802C66.141 99.4183 66.3879 99.9241 66.4195 100.001C66.4805 100.154 66.5242 100.15 63.1467 100.021C59.2327 99.8735 55.013 99.596 50.2286 99.1622C49.0852 99.059 47.9415 98.9591 46.7976 98.8624C46.6138 98.8473 46.7083 98.781 47.4818 98.2469C50.9543 95.8719 56.8473 90.8182 60.5561 87.0463C61.1934 86.3903 61.8298 85.734 61.9591 85.5781C62.0211 85.5012 62.0785 85.4659 62.1364 85.4242L62.9284 85.4294ZM58.573 85.4256C58.299 85.7329 56.8362 87.0247 55.3707 88.2512C52.2078 90.8871 48.9088 93.401 44.6642 96.3552C43.94 96.8678 43.2584 97.3366 43.1731 97.384C43.0315 97.4716 43.0105 97.4214 42.9589 96.7475C42.8609 95.2933 43.0142 93.5494 43.3443 92.0261C43.6683 90.5221 44.7523 88.1197 45.6928 86.7504C46.1113 86.1492 46.2776 85.9265 46.4778 85.8236C50.5053 85.5822 54.5387 85.4492 58.5734 85.4247L58.573 85.4256ZM88.9157 99.6243L88.5977 100.373C86.9077 104.349 84.1608 109.624 81.8472 113.335C81.4447 113.985 81.1125 114.519 81.0872 114.53C81.0872 114.53 80.6301 114.166 80.1004 113.73C77.6425 111.62 75.3954 109.277 73.3908 106.732C72.0623 105.052 70.2096 102.432 70.3106 102.391C70.3359 102.38 71.2503 102.307 72.3203 102.213C76.5892 101.881 80.7749 101.343 84.5087 100.634C85.9071 100.366 88.0457 99.8869 88.5383 99.7171L88.9157 99.6243ZM42.4513 86.1118C42.5179 86.1444 42.4355 86.2821 42.0614 86.8707C41.7038 87.4653 41.3683 88.073 41.0558 88.6925C39.8063 91.2364 39.4148 93.3464 39.5774 96.5307C39.6239 97.4132 39.6515 98.1409 39.6256 98.1506C39.4556 98.2055 26.1806 96.6472 22.0398 96.087C20.8054 95.921 19.7293 95.7788 19.6501 95.7658C19.5093 95.7494 19.4992 95.7245 19.6817 95.4435C21.2061 92.9968 24.6591 90.4222 28.669 88.7156C31.3412 87.5771 33.2987 87.0823 36.4442 86.7142C37.4968 86.5922 38.8005 86.4519 39.9265 86.3361C40.7627 86.2554 41.6043 86.1806 42.4513 86.1118ZM68.1513 102.905L68.1532 102.906C68.1794 102.895 68.507 103.309 68.8959 103.83C71.7723 107.665 76.2145 111.974 80.2965 114.951L80.6685 115.213L79.9619 115.293C77.0306 115.605 67.8568 115.538 58.6214 115.129C57.2799 115.064 55.9586 115.008 55.7072 115.006C55.4548 115.004 55.2342 114.974 55.2421 114.955C55.2499 114.937 55.8372 114.45 56.5725 113.857C60.5749 110.631 64.9808 106.505 67.6233 103.46C67.9099 103.182 68.1251 102.916 68.1513 102.905ZM64.9232 102.627L64.9251 102.627C64.9356 102.654 64.6325 102.968 64.2721 103.32C61.1215 106.423 57.3452 109.661 52.7868 113.154C51.6272 114.052 50.6728 114.762 50.6553 114.754C50.6378 114.747 50.2391 114.197 49.762 113.532C46.9687 109.607 44.8274 105.329 43.8097 101.633L43.6542 101.105L45.467 101.349C51.9541 102.233 57.622 102.62 63.4197 102.6C64.2367 102.611 64.9057 102.619 64.9232 102.627ZM79.9263 116.267C79.7702 116.685 77.3009 119.972 75.4226 122.311C73.8513 124.275 72.5733 125.794 70.2803 128.462C69.2767 129.637 68.4263 130.6 68.4079 130.592C68.3895 130.584 68.2907 130.523 68.1979 130.442C63.3117 127.228 59.137 123.874 55.4365 120.197C54.4009 119.167 52.9592 117.606 52.8895 117.471C52.8698 117.421 54.1512 117.376 55.7568 117.364C65.3786 117.264 75.5069 116.81 79.1317 116.309C79.5615 116.238 79.8729 116.244 79.9263 116.267ZM38.6622 100.372C38.6833 100.424 35.03 102.723 29.9705 105.816C28.2039 106.897 26.1484 108.169 25.3792 108.642C24.4883 109.191 23.6085 109.758 22.7404 110.342L21.4981 111.184L20.9851 110.164C20.3735 108.977 19.4453 106.605 19.1075 105.367C18.385 102.808 18.2066 100.351 18.5777 98.3404C18.7445 97.4008 18.926 96.9738 19.1264 96.9981C22.6075 97.586 26.0864 98.1865 29.5632 98.7997C31.9011 99.2143 34.2408 99.6193 36.5821 100.015C37.7225 100.205 38.6447 100.364 38.6622 100.372ZM40.5721 102.216L40.871 103.1C42.2185 107.063 43.9372 110.298 46.3233 113.501C46.757 114.066 47.0651 114.532 47.0213 114.535C46.8596 114.571 34.3194 113.81 28.53 113.414C26.5442 113.291 24.5593 113.156 22.5752 113.008C22.5577 113.001 22.4424 112.825 22.3176 112.625L22.094 112.256L22.9306 111.727C25.6362 110.014 28.8698 108.252 35.8016 104.671L40.5721 102.216ZM50.4768 118.444C50.5021 118.433 51.164 119.051 51.976 119.82C53.9232 121.679 55.5233 123.012 57.7191 124.682C60.4249 126.737 64.4942 129.349 66.9897 130.664C67.3673 130.865 67.5647 130.991 67.4711 131.014C67.3158 131.032 64.3218 130.793 62.1391 130.58C58.6621 130.24 48.1268 129.026 39.5624 127.976C38.5555 127.857 37.5494 127.732 36.5442 127.599C36.3508 127.558 35.8306 127.146 35.8607 127.075C35.8756 127.04 36.5382 126.67 37.3132 126.283C41.1846 124.307 45.1902 121.966 48.6916 119.623C49.6596 118.981 50.4693 118.462 50.4768 118.444ZM47.2982 117.2L47.3001 117.201C47.3097 117.227 45.1802 118.72 41.4831 121.275C39.9099 122.354 38.1437 123.585 37.5205 124.013C36.9209 124.432 36.0049 125.097 35.4905 125.466L34.5891 126.156L34.3519 125.972C33.7849 125.519 29.9477 122.015 28.9567 121.026C27.7797 119.86 26.6639 118.635 25.6136 117.354C24.5133 115.98 23.2156 114.081 23.3735 114.106C23.4163 114.103 26.1389 114.482 29.4223 114.929C38.1333 116.126 42.9897 116.738 46.2043 117.051C46.7899 117.11 47.2886 117.174 47.2982 117.2ZM67.2874 131.84L67.3068 131.849C67.3014 132.058 61.0017 138.854 58.8729 140.938C58.4003 141.411 58.2491 141.516 58.1317 141.444C57.8359 141.297 53.8965 138.931 51.5055 137.472C47.3536 134.908 40.451 130.438 38.7622 129.214L38.3731 128.944L41.2869 129.466C47.5386 130.607 50.5802 131.079 53.7262 131.406C57.7861 131.834 61.8713 131.972 65.9509 131.82C66.6087 131.806 67.1541 131.807 67.2867 131.842L67.2874 131.84Z" fill="#9747FF"/>
</g>
<defs>
<clipPath id="clip0_160_23">
<rect width="128" height="128" fill="white" transform="translate(50.1299 0.0664062) rotate(23.0242)"/>
</clipPath>
</defs>
</svg>
