<svg width="205" height="205" viewBox="0 0 205 205" fill="none" xmlns="http://www.w3.org/2000/svg">
<g clip-path="url(#clip0_144_13)">
<path d="M174.458 57.4219L105.446 17.5781C88.6312 7.86999 67.13 13.6312 57.4219 30.4462L17.5781 99.4576C7.87 116.273 13.6312 137.774 30.4462 147.482L99.4576 187.326C116.273 197.034 137.774 191.273 147.482 174.458L187.326 105.446C197.034 88.6312 191.273 67.13 174.458 57.4219Z" fill="#007ACC"/>
<path d="M65.9777 81.9682L62.8652 87.2644L79.773 97.0262L52.035 145.07L63.9947 151.975L91.7327 103.931L108.641 113.693L111.653 108.476C113.319 105.589 114.651 103.141 114.604 103.032C114.589 102.914 104.324 96.9315 91.8371 89.75L69.0991 76.7048L65.9777 81.9682ZM145.218 120.45C148.04 123.18 149.711 126.096 150.639 129.821C151.097 131.791 151.525 135.144 151.348 135.784C151.294 135.973 143.454 136.505 138.805 136.653C138.633 136.664 138.448 135.842 138.367 134.696C138.102 131.299 136.957 129.235 134.383 127.502C130.6 124.96 126.873 125.558 124.905 129.013C124.322 130.023 124.121 130.704 124.057 131.768C123.887 134.061 124.877 136.062 128.667 141.164C135.657 150.534 138.112 155.471 138.42 160.652C138.767 166.433 135.528 173.471 130.783 177.357C125.602 181.569 118.369 182.287 110.47 179.348C108.017 178.455 102.774 175.345 100.632 173.531C95.9512 169.591 92.4907 164.157 91.3913 159.014C90.9573 157.003 90.6152 152.214 90.9028 152.05C91.0117 152.003 91.7385 151.983 92.5387 151.978C93.3066 151.981 96.2189 151.986 98.9711 151.98L103.953 151.969L104.07 153.577C104.199 155.878 105.269 159.547 106.272 161.144C109.154 165.722 115.025 168.699 119.281 167.802C121.108 167.4 122.257 166.551 123.222 164.881C124.091 163.376 124.286 162.609 124.157 161.022C123.98 158.996 122.621 156.589 118.229 150.672C113.194 143.916 111.343 140.455 110.347 136.086C109.773 133.556 109.854 130.083 110.53 127.531C111.094 125.411 113.625 120.741 115.089 119.111C120.208 113.434 127.702 111.74 135.528 114.471C138.067 115.36 143.291 118.596 145.218 120.45Z" fill="white"/>
</g>
<defs>
<clipPath id="clip0_144_13">
<rect width="150" height="150" fill="white" transform="translate(75) rotate(30)"/>
</clipPath>
</defs>
</svg>
