<svg width="110" height="101" viewBox="0 0 110 101" fill="none" xmlns="http://www.w3.org/2000/svg">
<path d="M101.127 1.88274C100.996 1.7506 97.8167 1.09821 95.7046 0.764004C92.8498 0.317934 90.4996 0.157687 88.8701 0.308794C88.328 0.362251 87.5902 0.559644 87.2645 0.725549L87.2728 0.700581C87.2728 0.700581 87.2241 0.741724 87.2076 0.751303C87.19 0.762453 87.1572 0.774622 87.1432 0.784782C87.0496 0.855359 86.9659 0.941663 86.8962 1.03928L86.9005 1.08159C86.8414 1.17598 86.7865 1.29001 86.7426 1.42622C86.6389 1.7585 86.6617 2.26956 86.712 2.81462C86.712 2.81462 87.1192 8.61996 87.1126 9.40249C87.0714 12.9822 86.1136 15.852 83.8587 19.1387C82.4067 21.2485 80.7745 22.8497 78.4592 24.4032C74.3163 27.2001 68.324 29.2661 60.3862 30.6356L60.4719 30.6555C60.4243 30.663 60.3425 30.6804 60.2967 30.688C59.3617 30.8307 57.8264 31.2527 56.9552 31.5933C55.6521 32.107 54.4357 32.7733 53.6651 33.4025C52.2815 34.5446 51.4414 36.1003 51.216 37.933C50.9347 40.2725 51.5453 43.3042 52.852 46.0075C53.5169 47.3859 54.8071 49.4674 55.884 50.8881C57.6651 53.2598 61.5557 57.2317 63.919 59.1055C64.3961 59.4858 65.0608 59.9626 65.1061 59.957C65.1904 59.9533 66.2139 59.3295 67.4554 58.529C71.6873 55.809 75.3305 53.0223 78.1056 50.4002C79.7816 48.8078 81.8232 46.549 84.0945 43.7688C84.7263 42.9899 86.7015 40.278 87.3227 39.3263C88.3443 37.7723 89.1149 36.4688 89.8061 35.1475C89.8788 35.0046 89.927 34.944 89.9706 34.8873C96.8585 36.7947 104.174 39.2941 108.711 41.4037L109.411 41.7277L109.449 41.4765C109.652 40.0469 109.744 39.1318 109.79 38.1225C109.92 35.1919 109.501 32.439 108.53 29.7105C107.189 25.9656 104.78 22.0643 101.19 17.8754C100.514 17.086 98.9876 15.4072 97.7213 14.079L97.8005 13.6792C98.2516 11.3603 98.9227 8.56312 99.4556 6.73465C99.8672 5.31511 100.426 3.73269 100.891 2.64213C101.184 1.98922 101.194 1.94544 101.126 1.88477L101.127 1.88274ZM100.711 2.23233L100.718 2.23779C100.719 2.25019 100.576 2.50689 100.405 2.80285C99.6626 4.09113 99.0342 5.43296 98.5299 6.80672C98.1183 7.90994 98.1554 7.85812 97.9423 7.53872C97.4188 6.80883 94.7927 3.92364 92.8246 1.92665C92.5075 1.61002 92.2451 1.33254 92.2507 1.32469C92.247 1.27089 94.6605 1.38852 95.6869 1.48975C96.9953 1.62802 100.49 2.13811 100.711 2.23233ZM91.4771 1.30133L91.6629 1.59991C92.667 3.23592 95.6683 6.68515 97.5174 8.3173C97.7228 8.50272 97.8958 8.66367 97.9022 8.66823C97.9035 8.68109 97.6237 8.67179 97.2767 8.63937C95.9205 8.54663 94.5496 8.51698 93.1677 8.55052C92.9644 8.5625 92.7634 8.55974 92.566 8.54224C92.3748 8.33728 92.1839 8.13212 91.9931 7.92676L91.91 6.69696C91.798 5.11115 91.6767 3.52806 91.5461 1.94776L91.4771 1.30133ZM91.0184 1.3671L90.915 3.52979C90.8533 4.71753 90.8115 5.89347 90.8003 6.15301C90.79 6.38584 90.7825 6.53978 90.7726 6.57905C90.2014 5.94927 89.587 5.27905 89.1368 4.73253C88.8094 4.33116 88.1927 3.54504 87.7684 2.84707C87.724 2.76656 87.6788 2.68657 87.6329 2.60713L87.6971 2.51763C88.1067 1.96001 89.2858 1.53338 90.8761 1.37918L91.0184 1.3671ZM97.6991 9.20994C97.727 9.22997 97.7066 9.32948 97.6257 9.6139C97.4044 10.4089 96.9081 12.6192 96.8497 13.0732L96.8398 13.1339C95.7391 11.9647 94.6447 10.7887 93.5566 9.60604C93.6242 9.59441 93.6913 9.59072 93.7567 9.59505C94.8536 9.61373 95.9708 9.51804 97.0933 9.30928C97.3638 9.26192 97.6141 9.21317 97.6606 9.2073C97.6788 9.19536 97.6983 9.19629 97.6991 9.20994ZM87.5197 4.0529C87.5317 4.0496 87.6048 4.17818 87.7042 4.33986C87.8842 4.63309 88.1262 4.99812 88.4234 5.41472C88.6486 5.72926 88.8769 6.04092 89.1084 6.34968C89.4246 6.76675 89.6797 7.12815 89.686 7.1327C89.6914 7.22574 88.4331 10.4259 87.9173 11.6315C87.7222 12.0898 87.5509 12.4747 87.5439 12.4696C87.5313 12.4725 87.5571 12.277 87.6081 12.021C88.0543 9.72362 88.057 7.07008 87.6163 4.61926C87.5701 4.43628 87.5378 4.24695 87.5197 4.0529ZM90.0365 7.5756C90.0247 7.59209 90.0303 7.583 90.0373 7.58801C90.0715 7.6126 90.2028 7.74598 90.3495 7.92738C91.2743 9.07359 92.9938 11.0432 94.1178 12.2682C94.3115 12.4713 94.4525 12.6474 94.4401 12.6647C94.4283 12.6811 94.3048 12.6817 94.1547 12.6752C93.4316 12.6607 92.7032 12.6729 91.9709 12.7117C90.7731 12.7919 89.6136 12.9768 88.6916 13.23C88.4634 13.2931 88.2351 13.3541 88.0066 13.4128C88.0066 13.4128 88.0697 13.2405 88.1616 13.04C88.7543 11.6992 89.4837 9.60617 89.8946 8.0589C89.9333 7.89682 89.9807 7.73543 90.0365 7.5756ZM94.9187 13.1864C94.9469 13.2328 94.8109 13.5657 94.4951 14.2929C93.8488 15.7308 93.0304 17.1031 92.0642 18.369C91.798 18.712 91.5497 19.0286 91.5065 19.0607L91.4247 19.1304L91.1749 18.7348C90.4734 17.668 89.7556 16.6151 89.0217 15.5764C88.5839 14.9698 88.2428 14.4587 88.2541 14.443C88.2907 14.392 89.878 13.9538 90.5201 13.8174C91.7413 13.5625 94.8751 13.1171 94.9187 13.1864ZM95.3263 13.6072C95.3666 13.598 97.7245 16.191 98.7765 17.4023C99.5559 18.3063 100.674 19.6399 100.725 19.7398C100.754 19.7863 100.539 19.7848 99.9046 19.7099C97.398 19.4245 95.425 19.3696 93.3197 19.5111C92.7693 19.548 92.3095 19.5737 92.3025 19.5687C92.2956 19.5637 92.4632 19.3153 92.6733 19.0224C93.8167 17.4286 94.7142 15.6333 95.2149 13.9328C95.263 13.7652 95.3131 13.6109 95.3263 13.6072ZM101.272 20.5409C101.275 20.5811 100.699 21.1944 100.329 21.5389C99.1885 22.614 97.1999 23.9976 95.141 25.1642C94.7756 25.3719 94.4665 25.5307 94.4464 25.5293C94.4269 25.5284 94.3347 25.2708 94.2339 24.9678C93.8556 23.8331 93.3458 22.6539 92.7287 21.4501C92.5602 21.1128 92.4061 20.8263 92.4115 20.804C92.4 20.7196 95.8669 20.5 97.6343 20.4716C99.043 20.4405 101.27 20.4872 101.272 20.5409ZM101.715 21.0099C101.776 21.0537 102.71 22.3599 103.186 23.0569C104.358 24.7872 105.593 26.9304 106.306 28.4583L106.602 29.0907L106.185 28.9426C102.673 27.6813 99.4904 26.8466 96.2158 26.3277C96.0399 26.3048 95.8663 26.2739 95.6956 26.2352C95.6829 26.2261 95.8899 26.0797 96.1466 25.9082C98.238 24.5247 100.132 22.8735 101.464 21.2613C101.584 21.1064 101.695 20.9954 101.715 21.0099ZM86.9218 15.6837C86.9607 15.6736 87.7052 16.6263 88.0869 17.1677C88.6675 17.9909 89.8218 19.8464 89.7851 19.8974C89.7789 19.9061 89.4581 19.9673 89.0726 20.0463C87.5277 20.3235 85.9799 20.6758 84.0773 21.1661C83.5128 21.3083 83.0462 21.4159 83.0329 21.4064C83.0196 21.3968 83.0492 21.3407 83.104 21.279C84.2712 19.9817 85.5357 18.1453 86.6372 16.1527C86.7847 15.9029 86.9086 15.6874 86.9218 15.6837ZM106.716 29.9206C106.717 29.9462 105.643 30.4982 105.004 30.7897C104.079 31.2193 102.796 31.7488 99.9423 32.8766C98.685 33.3732 97.4285 33.8739 96.1726 34.3786C95.6002 34.603 95.1233 34.796 95.1163 34.791C95.1099 34.7865 95.1298 34.5724 95.1675 34.3188C95.4188 32.3656 95.3933 30.4791 95.1096 28.5988C95.069 28.3084 95.0226 28.0201 94.9703 27.7342C94.9498 27.6579 94.9384 27.5775 94.9364 27.4946C94.9544 27.4695 96.5472 27.6845 97.7351 27.8755C100.047 28.2504 102.326 28.7275 104.566 29.3058C105.616 29.577 106.713 29.8944 106.715 29.9209L106.716 29.9206ZM107.117 30.4637C107.149 30.475 107.241 30.693 107.336 30.9763C108.147 33.3244 108.684 35.9845 108.853 38.4422C108.899 39.1364 108.969 40.9156 108.95 40.9139C108.95 40.9139 108.613 40.7236 108.223 40.4951C105.175 38.7148 100.984 36.8374 96.7182 35.3658C96.5322 35.3016 96.3479 35.2336 96.1655 35.1619C96.1522 35.1524 96.6523 35.0141 97.2677 34.8585C101.093 33.8793 103.149 33.0041 106.246 31.033C106.697 30.7344 107.086 30.4805 107.117 30.4637ZM90.64 21.5405C90.7172 21.634 91.2322 22.7776 91.6017 23.6658C91.942 24.4808 92.425 25.7429 92.4359 25.8269C92.4373 25.8397 91.9607 25.8165 91.3861 25.7731C89.663 25.6507 87.9209 25.6091 86.1644 25.6483C85.6642 25.6581 85.2489 25.6647 85.2419 25.6596C85.2146 25.6401 85.2452 25.6109 85.7232 25.3318C87.3207 24.3943 88.9877 23.0999 90.4153 21.6969C90.5327 21.5908 90.6197 21.526 90.64 21.5405ZM89.6146 21.1082C89.6163 21.1487 88.6464 22.0155 88.101 22.4757C86.9395 23.4262 85.72 24.2779 84.4572 25.0206C84.1797 25.1783 83.771 25.4048 83.5448 25.5339L83.1336 25.7479L83.0784 25.0233C83.0169 24.1788 82.8918 23.592 82.6416 22.9677C82.5433 22.7188 82.4732 22.5163 82.485 22.4998C82.5329 22.4331 84.6248 21.9656 86.1877 21.6633C87.3128 21.4406 89.6118 21.0693 89.6146 21.1082ZM93.038 27.7204L93.1799 28.2276C93.5195 29.468 93.788 30.7426 93.9843 32.0453C94.0887 32.7172 94.2387 34.083 94.2437 34.391L94.2455 34.5587L93.5584 34.3572C89.6873 33.194 86.6068 32.4207 82.8901 31.6869C82.4764 31.6042 82.1279 31.5326 82.1075 31.518C82.0669 31.4888 82.0022 31.5067 83.2728 31.2111C86.5251 30.457 89.7253 29.3468 92.4763 28.0048L93.038 27.7204ZM91.308 27.1405C91.3096 27.1678 89.2188 28.1201 88.0071 28.6351C86.1454 29.413 84.2754 30.1473 82.3987 30.8373C81.7055 31.0893 81.1196 31.2909 81.1001 31.29C81.0735 31.2828 81.1572 31.1526 81.2952 30.9602C82.0235 29.945 82.5884 28.7127 82.8844 27.5266C83.0049 27.0303 83.0452 26.9165 83.1099 26.8987C83.3402 26.8498 86.3129 26.8727 88.1557 26.9376C89.3945 26.9879 91.3001 27.1086 91.308 27.1405ZM80.8701 23.589C80.891 23.604 80.9746 23.8185 81.066 24.0624C81.2795 24.6364 81.4367 25.2421 81.5354 25.8715C81.5357 25.8978 81.2338 25.9488 80.8523 25.9927C79.6351 26.1231 78.4153 26.2818 77.1939 26.4685C76.1752 26.6273 76.1419 26.6296 76.2993 26.5522C77.3558 26.0257 77.9228 25.7071 78.599 25.2658C79.2259 24.8531 79.8361 24.4044 80.4262 23.9222C80.6548 23.7175 80.8567 23.5794 80.8701 23.589ZM81.5526 27.4357L81.5666 27.4457C81.6059 27.462 81.5942 27.5654 81.5359 28.0326C81.4117 29.0221 81.024 30.1937 80.5441 31.0196L80.4375 31.1976L79.1887 30.9749C76.9551 30.5796 74.8572 30.2674 73.398 30.1101C72.8614 30.0586 72.3235 30.0117 71.7845 29.9695C71.3015 29.9405 70.9161 29.9054 70.9218 29.8976C70.928 29.8889 71.2761 29.8473 71.7028 29.7979C75.0372 29.4321 78.2242 28.6953 80.973 27.6419C81.2657 27.5355 81.5325 27.4343 81.5526 27.4357ZM80.286 27.0099C80.2886 27.0641 78.741 27.5902 77.7368 27.8736C75.2422 28.5873 73.0188 28.9486 70.5086 29.0541C70.1911 29.0678 69.9058 29.0796 69.8731 29.0823C69.8018 29.0811 69.9225 29.0416 71.3081 28.599C72.1158 28.3465 72.9191 28.0533 73.7153 27.7203C74.2682 27.4938 74.3575 27.4711 74.9657 27.4114C76.6005 27.2368 80.2836 26.9571 80.286 27.0099ZM88.6505 34.5254C88.5413 34.8693 87.0888 37.2962 86.043 38.8625C85.8091 39.2168 85.6394 39.4399 85.626 39.4304C85.5715 39.3912 85.0512 37.8098 84.7048 36.6468C84.4061 35.6357 83.8809 33.6726 83.8182 33.3136C85.4401 33.6886 87.0511 34.0925 88.6505 34.5254ZM82.8597 33.1112C82.9148 33.2221 82.9827 33.4088 83.105 33.808C83.7254 35.8918 84.6858 38.5644 85.187 39.584C85.3415 39.8981 85.4048 39.8674 84.4792 39.9408C82.4982 40.0954 80.2238 40.0157 77.5989 39.6941C77.3127 39.6628 77.0286 39.624 76.7469 39.5777C76.7336 39.5681 76.924 39.3871 77.1582 39.1746C79.1115 37.4114 80.8861 35.4831 82.1155 33.7975C82.4223 33.3778 82.5729 33.1706 82.6589 33.0694L82.8597 33.1112ZM81.4903 32.8234C81.4149 33.0035 80.1516 34.7123 79.7429 35.1708C78.7345 36.3204 77.6499 37.3919 76.5016 38.373C76.2042 38.6294 75.9493 38.8413 75.9235 38.8478C75.8663 38.8698 75.7443 37.0805 75.7515 36.4257C75.7646 35.291 75.8919 34.2384 76.116 33.2813C76.2245 32.8204 76.4706 32.0325 76.5322 31.9292C77.8408 32.1354 79.1814 32.3669 80.5787 32.632C80.8654 32.6866 81.1936 32.7639 81.4903 32.8234ZM75.5582 31.7871C75.5517 31.8323 75.5132 31.9664 75.4515 32.1315C75.1448 33.0174 74.8624 34.4417 74.7899 35.4314C74.7095 36.5166 74.737 37.7541 74.8601 38.6427C74.9021 38.9273 74.9363 39.1933 74.9374 39.2333C74.9432 39.3123 74.9628 39.3158 73.4841 39.0423C71.7688 38.7274 69.9396 38.3273 67.8807 37.8172C67.3887 37.6949 66.8962 37.5743 66.403 37.4552C66.324 37.4366 66.3743 37.4108 66.7974 37.1935C68.6921 36.2277 72.0595 34.0828 74.2661 32.4382C74.647 32.1513 75.0277 31.8631 75.1083 31.7937C75.1419 31.7643 75.1693 31.7542 75.1964 31.7379C75.319 31.7546 75.4355 31.7692 75.5582 31.7871ZM73.6053 31.5206C73.4791 31.6322 72.6442 32.1809 71.786 32.7164C69.9899 33.8302 68.1521 34.8735 65.8301 36.0785C65.4321 36.2889 65.0585 36.48 65.014 36.4992C64.938 36.5327 64.9372 36.5083 65.0156 36.1698C65.1885 35.4423 65.5156 34.5829 65.8888 33.8469C66.257 33.1192 67.0964 31.9946 67.7171 31.372C67.9859 31.1058 68.0938 31.0037 68.1955 30.9624C70.0129 31.0952 71.8168 31.2813 73.6053 31.5206ZM84.9757 40.4361L84.7223 40.7894C83.3806 42.6597 81.3757 45.1101 79.7967 46.8113C79.5211 47.1083 79.2948 47.3527 79.2817 47.3575C79.2817 47.3575 79.1339 47.1481 78.9631 46.8983C78.1868 45.6979 77.5389 44.3944 77.0287 43.0061C76.6892 42.0907 76.2565 40.6755 76.3074 40.6608C76.32 40.658 76.738 40.6784 77.2272 40.6988C79.1704 40.7965 81.1063 40.7879 82.8683 40.6665C83.5289 40.6195 84.5493 40.5131 84.7939 40.4591L84.9757 40.4361ZM66.364 30.8711C66.3717 30.898 66.3176 30.9626 66.0876 31.2068C65.8396 31.4808 65.5997 31.7629 65.3684 32.0525C64.4352 33.2382 63.949 34.2618 63.5472 35.8525C63.4358 36.2946 63.3404 36.6555 63.3272 36.6591C63.243 36.676 57.5873 35.0828 55.8325 34.5482C55.3103 34.3889 54.8528 34.2533 54.8193 34.2423C54.7605 34.2251 54.7597 34.2115 54.8825 34.0832C55.923 32.9625 57.8374 31.8968 59.8712 31.2972C61.2258 30.8967 62.1679 30.7709 63.6181 30.7826C64.2871 30.7906 64.9543 30.8078 65.6195 30.8341C65.864 30.843 66.1169 30.8591 66.364 30.8711ZM75.2751 40.7837C75.2871 40.7804 75.3713 41.0073 75.4656 41.2902C76.171 43.372 77.5012 45.7865 78.8686 47.5179L78.9949 47.6715L78.669 47.6648C77.3226 47.6384 73.2626 47.0389 69.226 46.266C68.6407 46.1505 68.063 46.0417 67.9512 46.0246C67.8396 46.0087 67.7466 45.9801 67.7523 45.9722C67.7579 45.9644 68.0904 45.7582 68.5051 45.5086C70.7613 44.1541 73.3307 42.375 74.9574 41.0255C75.1257 40.9048 75.2619 40.7873 75.2751 40.7837ZM73.8833 40.4453C73.8847 40.4594 73.7034 40.5969 73.4914 40.7504C71.6315 42.0966 69.4732 43.4714 66.9312 44.9254C66.2822 45.2994 65.7545 45.5939 65.7476 45.5889C65.7406 45.5839 65.6455 45.2862 65.5335 44.9264C64.8779 42.8031 64.5653 40.5477 64.6639 38.6491L64.6743 38.3759L65.4423 38.6081C68.189 39.4488 70.6446 39.9902 73.22 40.3393C73.581 40.3949 73.877 40.442 73.8834 40.4465L73.8833 40.4453ZM78.5076 48.1484C78.3743 48.3477 76.7909 49.8257 75.6104 50.8709C74.557 51.8024 73.4908 52.7154 72.4123 53.6094C71.7919 54.1312 71.2712 54.5568 71.2649 54.5523C71.2375 54.5265 71.2135 54.497 71.1934 54.4642C69.5042 52.5662 68.1518 50.6411 67.0578 48.5862C66.7514 48.0108 66.3443 47.1468 66.3341 47.0752C66.332 47.0487 66.9079 47.1063 67.621 47.1993C71.9049 47.7441 76.467 48.1449 78.1499 48.119C78.3503 48.1105 78.4873 48.1339 78.5076 48.1484ZM62.569 37.704C62.5693 37.7304 60.6073 38.6466 57.9011 39.8698C56.957 40.2985 55.8562 40.8038 55.444 40.991C54.9671 41.2086 54.4925 41.4359 54.0204 41.6727L53.3433 42.0134L53.2673 41.4761C53.1727 40.8493 53.1136 39.6129 53.1487 38.9769C53.2085 37.6605 53.496 36.4314 53.9594 35.4557C54.1735 34.9992 54.3182 34.7974 54.4036 34.8218C54.5294 34.8609 56.7202 35.6322 58.7649 36.3617C59.7405 36.7118 60.7182 37.0573 61.6982 37.398C62.1762 37.5626 62.5626 37.6994 62.569 37.704ZM63.1415 38.7367L63.1418 39.1947C63.15 41.246 63.4302 42.9609 64.0118 44.6994C64.1202 45.0054 64.1876 45.2559 64.1674 45.2545C64.0894 45.2628 58.6398 44.11 56.1299 43.5558C55.2672 43.3721 54.4067 43.1821 53.5485 42.9859C53.5421 42.9814 53.5179 42.8879 53.4922 42.7803L53.448 42.5832L53.8977 42.3719C55.3534 41.6882 57.0506 41.0125 60.6598 39.663L63.1415 38.7367ZM65.1182 47.4112C65.1301 47.4079 65.3328 47.7554 65.5784 48.185C66.1657 49.2294 66.6775 49.9902 67.4032 50.9555C68.2975 52.1441 69.7134 53.6926 70.6241 54.4993C70.762 54.622 70.8297 54.6991 70.7844 54.7047C70.7132 54.7047 69.4207 54.3995 68.4831 54.1598C66.992 53.7751 62.4993 52.5215 58.8556 51.4703C58.1813 51.2791 57.6055 51.1086 57.5726 51.0969C57.4935 51.0651 57.324 50.8282 57.3477 50.7952C57.3595 50.7787 57.7096 50.6351 58.1114 50.4905C60.1469 49.7386 62.1633 48.8686 64.1505 47.8849C64.6754 47.6263 65.112 47.4198 65.1182 47.4112ZM63.8943 46.5962L63.8931 46.5978C63.8939 46.6102 62.7254 47.2204 60.7055 48.2616C59.8471 48.6995 58.8811 49.2017 58.5401 49.3769C58.2116 49.548 57.707 49.8198 57.4237 49.9721L56.9206 50.2593L56.8433 50.1527C56.6598 49.8938 55.4777 47.9161 55.1866 47.3636C54.8379 46.7121 54.5252 46.0345 54.2498 45.3335C53.9662 44.583 53.674 43.5588 53.7398 43.581C53.76 43.5824 54.9111 43.9373 56.3 44.3628C59.9873 45.4953 62.0516 46.0997 63.4309 46.4541C63.6817 46.5199 63.8935 46.5826 63.8943 46.5962ZM70.5817 55.1039L70.588 55.1084C70.5544 55.2116 66.7481 58.1988 65.4931 59.1025C65.2129 59.3082 65.1301 59.3499 65.0893 59.3076C64.9794 59.2168 63.5831 57.7978 62.7393 56.9261C61.2794 55.396 58.8843 52.7478 58.3168 52.0363L58.1853 51.8766L59.3987 52.3189C62.0034 53.2717 63.2812 53.6925 64.6284 54.0488C66.3658 54.5118 68.1574 54.8329 69.9896 55.0098C70.2842 55.0427 70.5278 55.0771 70.5817 55.1039ZM40.878 39.9437C40.5987 39.7433 40.2953 39.6838 39.9514 39.7665C39.5488 39.8666 39.1944 40.1154 38.8705 40.5669L38.3985 41.2248L37.8501 40.8314L37.4631 41.3708L38.0116 41.7642L35.5305 45.2228L35.5348 45.2235L36.0547 45.5965L38.5453 42.1245L39.3039 42.6687L39.6914 42.1285L38.9329 41.5843L39.3773 40.9649C39.7817 40.4011 40.1585 40.2457 40.5235 40.5076C40.646 40.5955 40.7441 40.7241 40.7906 40.855L41.2063 40.2755C41.1508 40.1572 41.0336 40.0565 40.8768 39.944L40.878 39.9437ZM23.1817 27.4796C23.1387 27.4467 23.088 27.4249 23.0326 27.4157C22.9773 27.4064 22.9185 27.4099 22.8597 27.4258C22.7999 27.4406 22.7411 27.4676 22.6867 27.5054C22.6323 27.5432 22.5835 27.591 22.5432 27.6459C22.4514 27.7739 22.4189 27.8862 22.4367 28.0155C22.4464 28.1373 22.5015 28.2406 22.5903 28.304L22.5915 28.3049C22.6345 28.3381 22.6853 28.3598 22.7408 28.369C22.7963 28.3781 22.8553 28.3743 22.9141 28.3579C22.9739 28.3437 23.0328 28.317 23.0872 28.2794C23.1416 28.2418 23.1904 28.194 23.2307 28.1391C23.2724 28.0847 23.3038 28.0233 23.3226 27.9593C23.3413 27.8953 23.3469 27.8305 23.339 27.7696C23.3347 27.7084 23.3185 27.6512 23.2915 27.6014C23.2645 27.5516 23.2271 27.5102 23.1817 27.4796ZM67.5613 59.416L67.4323 59.5958L67.8164 59.8714L66.7823 61.3129L66.9277 61.4172L67.9618 59.9756L68.3471 60.2521L68.4761 60.0723L67.5613 59.416ZM68.6735 60.2139L67.5104 61.8352L67.6551 61.939L68.4313 60.8571L68.4437 60.8613C68.5434 60.7223 68.6262 60.6069 68.664 60.5353C68.6189 60.6183 68.6034 60.6868 68.5853 60.7322L68.1445 62.2889L68.2162 62.3404L69.5606 61.4139C69.6003 61.3853 69.6464 61.3399 69.7134 61.2881C69.632 61.3859 69.5543 61.4869 69.4807 61.5909L68.6978 62.6823L68.8527 62.7934L70.0141 61.1744L69.8281 61.041L68.6198 61.8676C68.5821 61.9 68.4946 61.955 68.4113 62.0296L68.3973 62.0196C68.4269 61.9623 68.4443 61.8951 68.4775 61.7858L68.8823 60.3637L68.6735 60.2139ZM16.9782 23.4052L12.947 29.0246L13.4574 29.3907L16.1593 25.6243L16.1705 25.6276C16.5309 25.1251 16.7863 24.7422 16.934 24.5163L16.9435 24.5232C16.7989 24.8119 16.7118 25.0431 16.6619 25.2012L15.1389 30.5945L15.3991 30.7813L20.0476 27.5729C20.1747 27.4857 20.3432 27.3378 20.5715 27.1282L20.5829 27.1364C20.2945 27.4818 20.0182 27.8379 19.7548 28.2036L17.0456 31.9802L17.5763 32.3609L21.6046 26.7455L20.9387 26.2678L16.711 29.1536C16.5473 29.2705 16.3099 29.4486 15.9958 29.6895L15.9755 29.6749C16.085 29.4068 16.1759 29.134 16.2473 28.8591L17.6854 23.9125L16.9782 23.4052ZM41.9101 41.928C41.6778 41.8767 41.4558 41.8162 41.2439 41.7604L40.5426 42.738L39.984 42.3372L39.5971 42.8766L40.1557 43.2774L38.449 45.6564L38.4516 45.6582C37.8883 46.4434 37.8804 47.0442 38.453 47.4549C38.6606 47.6038 38.8459 47.6738 39.0375 47.6721L39.4329 47.1209C39.2733 47.1395 39.123 47.1011 39.0055 47.0117C38.8291 46.8851 38.7424 46.7433 38.7534 46.5751C38.7619 46.4064 38.8585 46.182 39.0511 45.9135L40.6749 43.6499L41.4983 44.2405L41.8852 43.7011L41.0619 43.1105L41.9101 41.928ZM43.8043 43.8137C43.5422 43.6256 43.252 43.5744 42.9189 43.6661C42.5833 43.7559 42.3095 43.9662 42.0875 44.2755C41.8549 44.5998 41.7461 44.9284 41.7767 45.2584C41.7955 45.5846 41.9382 45.8428 42.1984 46.0295L42.1962 46.0326C42.4558 46.2189 42.7466 46.2705 43.0832 46.1766C43.2438 46.1369 43.4016 46.0629 43.5466 45.9593C43.6915 45.8557 43.8205 45.7249 43.9254 45.5749C44.1563 45.253 44.2545 44.9191 44.2255 44.5856C44.2133 44.4225 44.1697 44.2703 44.0974 44.1378C44.0251 44.0053 43.9255 43.8951 43.8043 43.8137ZM43.721 43.9299C43.9476 44.0924 44.072 44.3184 44.0926 44.6222C44.1095 44.9257 44.0253 45.2185 43.8226 45.5012C43.7284 45.6358 43.613 45.7539 43.4834 45.8481C43.3538 45.9424 43.2127 46.0109 43.0686 46.0496C42.927 46.0886 42.7852 46.0973 42.6517 46.0752C42.5183 46.0531 42.3961 46.0006 42.2926 45.921C42.0628 45.7562 41.9386 45.5339 41.924 45.2285C41.9145 45.0796 41.9342 44.924 41.982 44.771C42.0297 44.6181 42.1045 44.471 42.2019 44.3386C42.4047 44.0559 42.6418 43.8728 42.9353 43.792C43.2271 43.7123 43.4804 43.7573 43.721 43.9299ZM43.1515 43.9102L42.1185 45.3502L42.2848 45.4695L42.7185 44.8649L42.7364 44.8802L42.8424 44.9562C42.9167 45.0095 42.9266 45.1498 42.8683 45.3624L42.7444 45.7992L42.9405 45.9399L43.0633 45.4417C43.1108 45.2415 43.1135 45.1091 43.0586 45.0328C43.1692 45.0717 43.2698 45.0856 43.3758 45.0463C43.4262 45.0291 43.4749 45.0019 43.519 44.9661C43.5631 44.9304 43.6018 44.8869 43.6328 44.8382C43.6721 44.789 43.7018 44.7329 43.7195 44.6742C43.7373 44.6155 43.7426 44.5559 43.735 44.5001C43.7162 44.3748 43.6301 44.2536 43.4822 44.1475L43.1515 43.9102ZM43.2156 44.2095L43.3635 44.3156C43.4682 44.3907 43.5233 44.4695 43.537 44.5376C43.5486 44.603 43.5247 44.6619 43.4593 44.753C43.3393 44.9202 43.1986 44.9382 43.0437 44.8271L42.8653 44.6991L43.2156 44.2095ZM29.7874 34.8667C29.2986 34.5161 28.7755 34.4143 28.234 34.5527C27.6474 34.7122 27.0932 35.1364 26.5953 35.8305C26.1616 36.435 25.9355 37.0316 25.9498 37.6067C25.9634 38.2016 26.2102 38.6712 26.6984 39.0213L26.696 39.022C27.1848 39.3727 27.718 39.4603 28.2871 39.2834C28.8527 39.1089 29.3687 38.6965 29.83 38.0535C30.3003 37.3979 30.5269 36.8005 30.5227 36.2314C30.5199 35.6657 30.2762 35.2174 29.7874 34.8667ZM36.0776 39.3791L36.0739 39.3789C35.5852 39.0282 35.0626 38.9257 34.5211 39.064C33.9359 39.2257 33.3815 39.6474 32.8836 40.3415C32.4499 40.9461 32.2245 41.5431 32.2369 42.1168C32.2517 42.7126 32.4979 43.1817 32.9867 43.5324C33.4869 43.8912 34.0087 43.9706 34.5778 43.7938C35.1458 43.6186 35.6613 43.2082 36.1226 42.5652C36.5929 41.9096 36.8152 41.3103 36.8141 40.7422C36.8005 40.1688 36.5543 39.7211 36.0776 39.3791ZM24.6711 31.1988C24.1518 30.8263 23.5986 30.741 23.0097 30.9227C22.4244 31.1046 21.8814 31.5344 21.4128 32.1877C20.996 32.7687 20.7809 33.3541 20.7939 33.9283C20.8111 34.5209 21.0435 34.9837 21.5005 35.3116C21.8637 35.5531 22.2185 35.6685 22.5982 35.6686L23.0404 35.0522C22.6234 35.104 22.2721 35.0267 21.9935 34.8268C21.6602 34.5878 21.4899 34.2515 21.4873 33.8382C21.4832 33.4285 21.6441 32.9803 21.9776 32.5155C22.3268 32.0287 22.7111 31.7181 23.1394 31.5794C23.5504 31.4462 23.9228 31.498 24.2542 31.7357C24.5246 31.9297 24.7087 32.22 24.8005 32.5986L25.2725 31.9406C25.1555 31.6427 24.9536 31.4015 24.6711 31.1988ZM33.0379 37.2259C32.7047 36.9868 32.3412 36.8985 31.9771 36.9691C31.804 36.9937 31.6306 37.061 31.4707 37.1656C31.3108 37.2702 31.169 37.4093 31.0564 37.5716C30.8452 37.866 30.7406 38.162 30.7474 38.4392C30.7519 38.6743 30.836 38.9725 31.0074 39.3072C31.1663 39.6352 31.2503 39.8881 31.2699 40.0591C31.2797 40.1384 31.2722 40.2227 31.248 40.3058C31.2237 40.389 31.1833 40.469 31.1297 40.5401C30.861 40.9146 30.5143 40.9596 30.1093 40.6691C29.797 40.445 29.6077 40.1178 29.5411 39.6812L29.0455 40.3721C29.1505 40.7043 29.3681 40.9758 29.669 41.1917C30.0717 41.4425 30.456 41.5421 30.8285 41.4598L30.8335 41.4609C31.1881 41.3847 31.4861 41.1906 31.7277 40.8537C31.8273 40.7195 31.904 40.5702 31.9532 40.4148C32.0024 40.2594 32.023 40.1011 32.0139 39.9495C31.9979 39.7037 31.904 39.4259 31.7222 39.0814C31.565 38.7725 31.4924 38.5467 31.4734 38.3963C31.467 38.3107 31.4782 38.2209 31.5061 38.1328C31.534 38.0446 31.5781 37.9601 31.6356 37.8848C31.755 37.7183 31.8977 37.6292 32.0749 37.5994C32.2534 37.5717 32.4246 37.6172 32.6036 37.7456C32.8829 37.946 33.057 38.21 33.1362 38.5605L33.5981 37.9167C33.4753 37.6301 33.2833 37.3933 33.0379 37.2259ZM27.5552 33.3249C27.368 33.1905 27.1453 33.1498 26.8949 33.1865C26.6319 33.2274 26.3426 33.3707 26.0584 33.6128L26.0457 33.6037L26.6343 32.7832L26.1163 32.4116L23.2398 36.4214L23.7591 36.7939L25.2348 34.7368L25.2479 34.7426C25.5785 34.2817 25.9275 33.9695 26.2677 33.8236C26.5787 33.697 26.8403 33.7063 27.0485 33.8557C27.225 33.9823 27.3213 34.112 27.3479 34.2679L27.8284 33.5981C27.7855 33.5079 27.6898 33.4214 27.5552 33.3249ZM21.4427 29.424L18.9323 32.9234L19.3893 33.2513L21.8997 29.7518L21.4427 29.424ZM35.6667 39.9037C35.9885 40.1346 36.1551 40.4479 36.1588 40.8394C36.1217 41.2409 35.9386 41.6959 35.5697 42.2102L35.571 42.2111C35.2201 42.7002 34.8591 43.0252 34.4985 43.1566C34.1276 43.2996 33.766 43.2555 33.422 43.0086C33.0887 42.7696 32.9329 42.4426 32.9286 42.0304C32.9262 41.6183 33.0979 41.1779 33.4488 40.6887C33.8189 40.1729 34.2097 39.8479 34.6112 39.7292C34.9921 39.6136 35.3442 39.6724 35.6667 39.9037ZM29.3586 35.3975C29.6925 35.637 29.8508 35.9444 29.8508 36.3357C29.8443 36.7401 29.6622 37.191 29.2922 37.7069C28.9418 38.1952 28.5809 38.5214 28.2197 38.6524C27.8501 38.7963 27.4885 38.7522 27.1451 38.5058C26.8118 38.2667 26.6542 37.9384 26.6499 37.5262C26.6474 37.1141 26.821 36.675 27.172 36.1859C27.5009 35.6845 27.8899 35.3607 28.3013 35.2241C28.6847 35.1079 29.0367 35.1666 29.3586 35.3975ZM15.7578 33.329C13.7281 31.8159 11.7988 31.6948 9.95776 32.9463C7.2433 34.7962 6.69884 37.2681 8.11612 41.4778C8.9127 43.8414 8.89986 45.3912 8.0961 46.5117C6.43566 48.8263 3.60064 48.0163 2.31484 44.8938C2.04798 44.2552 1.81921 43.7177 1.79699 43.7018C1.24232 44.2981 0.158359 45.8989 0.158359 45.8989C0.158359 45.8989 0.60807 46.7852 1.49726 47.8107C3.68619 50.3752 7.21585 50.5681 9.24226 48.2258C11.1296 46.0157 11.3263 44.2873 10.1015 40.4915L10.1003 40.4931C9.29809 37.9471 9.20067 36.4584 10.0894 35.4192C12.553 32.5533 15.3041 35.1691 16.1669 37.5409L17.6564 35.4913C17.6564 35.4913 17.0806 34.3171 15.7578 33.329ZM25.9971 40.6743L25.996 40.6759C25.871 40.5862 25.7346 40.5122 25.6108 40.4234C22.9655 38.7766 20.2731 38.9299 17.349 40.9017C14.7538 42.7194 12.5693 45.9615 11.5841 48.958C10.7645 51.9876 11.3048 54.285 13.375 56.4908C13.8104 56.9601 13.9053 57.5503 13.8709 59.6864L13.8209 62.3215L16.0268 63.9039L15.8728 61.0226C15.7802 59.4387 15.7514 58.0957 15.8066 58.0187C15.8612 57.9426 16.2916 57.998 16.7682 58.1258C18.3384 58.5506 20.2131 58.1045 22.2323 56.8083C23.8574 55.7705 24.2645 55.38 25.6472 53.6295C29.7305 48.3972 29.85 43.38 25.9971 40.6743ZM48.5642 56.9048C46.5332 55.3908 44.6051 55.2706 42.7628 56.5212C40.0502 58.3713 39.5153 60.8512 40.9225 65.0549C41.7171 67.4159 41.7145 68.9528 40.9113 70.0724C39.2508 72.3871 36.4063 71.5904 35.13 68.4546C34.8645 67.8182 34.6335 67.2838 34.6106 67.2674C34.0572 67.8633 32.972 69.4645 32.972 69.4645C32.972 69.4645 33.4241 70.3287 34.3 71.3661C36.4909 73.9332 40.0176 74.1288 42.044 71.7865C43.9211 69.5868 44.1203 67.8615 42.9054 64.068L42.9076 64.0649C42.1026 61.5228 42.0092 60.0311 42.8967 58.991C45.3603 56.1251 48.1115 58.7421 48.9742 61.1127L50.4632 59.0639C50.4632 59.0639 49.888 57.8902 48.5642 56.9048ZM33.7556 46.5349L22.3555 62.4265L29.1428 67.2955L30.4889 65.419L25.3153 61.7076L35.3693 47.6925L33.7556 46.5349ZM24.6832 42.2648C27.3658 44.1892 27.4347 47.3152 24.895 51.2764C22.7657 54.577 20.1867 56.3493 17.8229 56.1556L17.8205 56.1562C16.287 56.0289 14.6379 55.0386 13.9522 53.8474C13.2434 52.6159 13.1929 50.5366 13.8324 48.68C14.5231 46.6424 16.8096 43.6091 18.3875 42.6385C20.9093 41.0975 22.8753 40.9678 24.6832 42.2648ZM76.9838 84.029C76.6472 83.7953 76.2816 83.6048 75.8927 83.4604C73.2561 82.6191 70.2302 84.2907 68.4404 86.9597C66.8752 89.1417 66.4413 90.4703 66.4731 92.2259C66.9459 95.2526 68.4257 96.5271 71.2496 97.1115C71.5988 97.1592 71.9489 97.2042 72.2998 97.2465L73.5738 95.4704L72.4638 95.4162C70.0706 95.1027 68.7717 94.1697 68.5196 92.3311C68.4512 91.0179 68.8732 89.8198 69.5681 88.5643L76.0132 93.1878L77.102 91.6701C79.3121 88.5891 79.2081 85.551 76.9777 84.0294L76.9838 84.029ZM88.5117 92.2988C88.2495 92.1107 87.9581 92.0586 87.6233 92.1526C87.2914 92.2427 87.0138 92.4527 86.7919 92.7621C86.561 93.084 86.4527 93.4118 86.4792 93.7448C86.5076 94.0779 86.6514 94.3357 86.9136 94.5238C87.172 94.7091 87.4635 94.7625 87.8003 94.6723C88.1332 94.5781 88.4084 94.3902 88.6382 94.0699C88.8613 93.7388 88.9605 93.4021 88.9316 93.0698L88.934 93.0691C88.9215 92.9063 88.8776 92.7544 88.805 92.6222C88.7324 92.4901 88.6331 92.3796 88.5117 92.2988ZM53.3889 67.1432C53.0574 66.912 52.6964 66.7248 52.3118 66.5846C49.6726 65.7415 46.6465 67.4106 44.8485 70.0725C43.281 72.2576 42.8411 73.5986 42.8712 75.3552C43.3456 78.3796 44.8242 79.6532 47.6373 80.2311C48.1378 80.3 48.6941 80.3636 48.6941 80.3636L49.9659 78.5908L48.8556 78.5328C46.4645 78.2244 45.1664 77.2931 44.9099 75.4525C44.8464 74.1405 45.2712 72.9278 45.959 71.6861L52.4137 76.3165L53.5019 74.7996C55.7222 71.7045 55.6183 68.67 53.3914 67.145L53.3901 67.1441L53.3889 67.1432ZM86.3146 90.8796C85.3897 90.2161 84.3413 90.1657 83.2166 90.7431L82.3261 91.1936L83.6723 89.3171L82.0719 88.1691L73.9933 99.4306L75.593 100.578L78.1749 96.979C80.536 93.6876 80.8449 93.3241 81.8636 92.6921C83.2614 91.8265 84.5871 91.8428 85.2261 92.7507L85.6499 93.3663L87.0535 91.4097L86.3146 90.8796ZM88.414 92.4095C88.6406 92.572 88.7672 92.7937 88.7867 93.099C88.8012 93.4043 88.7183 93.6969 88.5178 93.9764C88.3032 94.2755 88.0664 94.4541 87.7604 94.5295C87.619 94.5687 87.4774 94.5774 87.3443 94.555C87.2112 94.5325 87.0895 94.4795 86.9868 94.3991C86.7601 94.2365 86.6359 94.013 86.6165 93.7089C86.6074 93.5593 86.6274 93.4031 86.6754 93.2496C86.7234 93.096 86.7984 92.9484 86.896 92.8154C87.0971 92.535 87.3361 92.3533 87.6326 92.2711C87.9249 92.1906 88.1747 92.2378 88.414 92.4095ZM62.7221 73.9944C61.7972 73.3309 60.7565 73.286 59.6246 73.8559L58.7319 74.3095L60.0798 72.4306L58.4807 71.2835L50.4004 82.5474L52.0001 83.695L54.5831 80.0942C56.9448 76.8021 57.2538 76.441 58.2718 75.8073C59.6707 74.939 60.994 74.9559 61.6359 75.8624L62.0586 76.4795L63.4588 74.5276L62.7212 73.9985L62.7221 73.9944ZM63.8213 75.0945C62.1925 79.6546 60.6329 84.229 59.1432 88.8157C59.6423 89.1963 60.1627 89.547 60.6718 89.9122L66.4713 85.6209L72.3842 81.2384L70.8061 80.1063C70.8061 80.1063 68.4845 81.8682 65.94 83.8793L65.9437 83.8795L61.5417 87.2065L63.3515 81.9831L65.4749 76.2795L63.8213 75.0945ZM87.8571 92.4179L86.8252 93.8563L86.9928 93.9765L87.4276 93.3703L87.5317 93.445C87.6028 93.496 87.6092 93.6373 87.5534 93.8518L87.4294 94.2873L87.6275 94.4294L87.7497 93.932C87.8152 93.728 87.8071 93.608 87.7634 93.5375C87.8605 93.5755 87.9713 93.5808 88.0832 93.5528C88.1851 93.5182 88.278 93.4437 88.3414 93.3456C88.3804 93.2965 88.4097 93.2405 88.4271 93.182C88.4446 93.1235 88.4496 93.0641 88.4419 93.0086C88.4231 92.8834 88.3364 92.7617 88.1897 92.6565L87.8571 92.4179ZM87.9123 92.7108L88.0596 92.8164C88.1637 92.8911 88.2192 92.9666 88.2329 93.0359C88.2466 93.1052 88.22 93.161 88.1541 93.2529C88.0347 93.4194 87.8957 93.4362 87.7415 93.3255L87.5631 93.1976L87.9123 92.7108ZM75.6787 85.6472C76.1561 85.9897 76.4984 86.523 76.6251 87.18C76.8821 88.5334 75.6533 90.5357 75.6533 90.5357L70.8416 87.0839C70.8737 87.0499 72.4691 85.3379 73.8918 85.2002C74.5551 85.1333 75.1792 85.2901 75.6787 85.6472ZM52.0784 68.7742C52.5668 69.1248 52.8991 69.664 53.0244 70.3091C53.2814 71.6624 52.0608 73.6493 52.0608 73.6493L47.2503 70.1984C47.2858 70.1596 48.8776 68.4486 50.2897 68.3271C50.9533 68.2613 51.5782 68.4175 52.0784 68.7742Z" fill="#9747FF"/>
</svg>
