<svg width="184" height="184" viewBox="0 0 184 184" fill="none" xmlns="http://www.w3.org/2000/svg">
<g clip-path="url(#clip0_76_65)">
<path d="M110.931 9.099L33.9583 29.7236C15.2037 34.7489 4.07381 54.0264 9.09911 72.7811L29.7237 149.753C34.749 168.508 54.0265 179.638 72.7812 174.613L149.753 153.988C168.508 148.963 179.638 129.685 174.613 110.93L153.988 33.9582C148.963 15.2036 129.685 4.07371 110.931 9.099Z" fill="#242938"/>
<path d="M110.59 39.5205L130.965 34.0611L103.571 135.577L29.0896 61.3584L68.0568 50.9172L85.4866 68.0847L91.7427 44.5705L110.59 39.5205Z" fill="#41B883"/>
<path d="M29.0896 61.3584L103.571 135.577L130.965 34.0611L110.59 39.5205L94.1535 100.43L49.2099 55.9672L29.0896 61.3584Z" fill="#41B883"/>
<path d="M49.21 55.9673L94.2218 100.685L110.59 39.5206L91.7428 44.5707L85.4866 68.0848L68.0568 50.9173L49.21 55.9673Z" fill="white"/>
</g>
<defs>
<clipPath id="clip0_76_65">
<rect width="150" height="150" fill="white" transform="translate(0 38.8228) rotate(-15)"/>
</clipPath>
</defs>
</svg>
