<svg width="534" height="173" viewBox="0 0 534 173" fill="none" xmlns="http://www.w3.org/2000/svg">
<g filter="url(#filter0_d_139_9)">
<path d="M63.5 57.29C63.5 49.9633 65.7867 43.92 70.36 39.16C74.98 34.3533 81.14 31.95 88.84 31.95C95.7 31.95 101.277 33.7233 105.57 37.27C109.91 40.77 112.453 45.5767 113.2 51.69H102C101.44 48.5167 99.9933 46.0667 97.66 44.34C95.3267 42.6133 92.4333 41.75 88.98 41.75C84.5933 41.75 81.1167 43.1033 78.55 45.81C75.9833 48.47 74.7 52.2967 74.7 57.29C74.7 62.2833 75.9833 66.1333 78.55 68.84C81.1167 71.5467 84.5933 72.9 88.98 72.9C92.4333 72.9 95.3267 72.0367 97.66 70.31C99.9933 68.5367 101.44 66.0633 102 62.89H113.2C112.453 69.05 109.91 73.9033 105.57 77.45C101.277 80.95 95.7 82.7 88.84 82.7C81.14 82.7 74.98 80.32 70.36 75.56C65.7867 70.7533 63.5 64.6633 63.5 57.29ZM143.337 45.95C147.911 45.95 151.457 47.42 153.977 50.36C156.544 53.3 157.827 57.4767 157.827 62.89V82H146.627V64.64C146.627 61.42 146.067 59.1333 144.947 57.78C143.874 56.4267 142.007 55.75 139.347 55.75C136.081 55.75 133.584 56.7767 131.857 58.83C130.131 60.8367 129.267 64.1967 129.267 68.91V82H118.067V30.55H129.267V50.92L127.167 57.22H129.967C130.714 53.86 132.231 51.1533 134.517 49.1C136.804 47 139.744 45.95 143.337 45.95ZM161.989 63.87C161.989 58.3633 163.693 54 167.099 50.78C170.553 47.56 175.056 45.95 180.609 45.95C186.163 45.95 190.666 47.5133 194.119 50.64C197.573 53.72 199.299 57.8967 199.299 63.17V66.67H172.489C172.489 68.77 173.259 70.45 174.799 71.71C176.386 72.97 178.719 73.6 181.799 73.6C183.806 73.6 185.486 73.25 186.839 72.55C188.193 71.85 189.033 70.8467 189.359 69.54H200.559C200.373 70.8933 199.859 72.3167 199.019 73.81C198.179 75.2567 197.013 76.6567 195.519 78.01C194.073 79.3633 192.136 80.4833 189.709 81.37C187.329 82.2567 184.693 82.7 181.799 82.7C175.359 82.7 170.436 80.9033 167.029 77.31C163.669 73.7167 161.989 69.2367 161.989 63.87ZM172.489 60.37H188.799C188.799 58.8767 188.146 57.6167 186.839 56.59C185.579 55.5633 183.503 55.05 180.609 55.05C177.716 55.05 175.639 55.5633 174.379 56.59C173.119 57.57 172.489 58.83 172.489 60.37ZM204.03 64.29C204.03 58.55 205.804 54.07 209.35 50.85C212.897 47.5833 217.564 45.95 223.35 45.95C228.484 45.95 232.87 47.3033 236.51 50.01C240.15 52.7167 242.087 56.4733 242.32 61.28H231.12C230.887 59.6467 230.07 58.3167 228.67 57.29C227.317 56.2633 225.544 55.75 223.35 55.75C220.737 55.75 218.73 56.4967 217.33 57.99C215.93 59.4833 215.23 61.5833 215.23 64.29C215.23 67.0433 215.907 69.1667 217.26 70.66C218.66 72.1533 220.69 72.9 223.35 72.9C225.544 72.9 227.317 72.3867 228.67 71.36C230.07 70.3333 230.887 69.0033 231.12 67.37H242.32C242.087 72.1767 240.15 75.9333 236.51 78.64C232.87 81.3467 228.484 82.7 223.35 82.7C217.564 82.7 212.897 81.09 209.35 77.87C205.804 74.6033 204.03 70.0767 204.03 64.29ZM274.304 82L265.484 68.35L257.714 71.99V82H246.514V30.55H257.714V60.44L273.884 53.02L273.744 46.65H284.944V54.35C284.944 57.6167 283.474 59.95 280.534 61.35L275.074 63.87L287.044 82H274.304ZM312.26 57.29C312.26 49.9633 314.546 43.92 319.12 39.16C323.693 34.3533 329.806 31.95 337.46 31.95C345.113 31.95 351.203 34.3533 355.73 39.16C360.303 43.92 362.59 49.9633 362.59 57.29C362.59 64.6633 360.303 70.7533 355.73 75.56C351.203 80.32 345.113 82.7 337.46 82.7C329.76 82.7 323.623 80.32 319.05 75.56C314.523 70.7533 312.26 64.6633 312.26 57.29ZM327.03 45.88C324.65 48.6333 323.46 52.4367 323.46 57.29C323.46 62.1433 324.65 65.97 327.03 68.77C329.41 71.5233 332.886 72.9 337.46 72.9C342.033 72.9 345.486 71.5233 347.82 68.77C350.2 65.97 351.39 62.1433 351.39 57.29C351.39 52.4367 350.2 48.6333 347.82 45.88C345.486 43.1267 342.033 41.75 337.46 41.75C332.886 41.75 329.41 43.1267 327.03 45.88ZM385.974 72.9C389.241 72.9 391.737 71.8967 393.464 69.89C395.191 67.8367 396.054 64.4533 396.054 59.74V46.65H407.254V82H396.054V77.73L398.154 71.43H395.354C394.607 74.79 393.091 77.52 390.804 79.62C388.517 81.6733 385.577 82.7 381.984 82.7C377.411 82.7 373.841 81.23 371.274 78.29C368.754 75.35 367.494 71.1733 367.494 65.76V46.65H378.694V64.01C378.694 67.23 379.231 69.5167 380.304 70.87C381.424 72.2233 383.314 72.9 385.974 72.9ZM431.052 72.9L444.072 72.2V82L425.802 82.7C423.889 82.7467 422.419 82.2567 421.392 81.23C420.365 80.2033 419.852 78.71 419.852 76.75V56.45H411.452V46.65H419.852V40L431.052 36.5V46.65H442.672V56.45H431.052V72.9ZM64.2 150V100.65H86.25L93.46 147.2H96.26L103.47 100.65H125.52V150H114.32V110.45L116.42 103.45H113.62L105.71 150H84.01L76.1 103.45H73.3L75.4 110.45V150H64.2ZM160.577 114.65H173.247L157.077 147.9V158.82C157.077 160.78 156.541 162.273 155.467 163.3C154.441 164.327 152.971 164.793 151.057 164.7L133.767 164.21V154.41L145.877 154.62V147.9L129.707 114.65H142.307L150.077 134.11V139.71H152.877V134.11L160.577 114.65Z" fill="white"/>
</g>
<path d="M236.919 137.428C235.182 142.201 231.904 146.131 227.086 149.22C222.268 152.308 215.754 154.283 207.546 155.146C197.865 156.164 191.483 155.137 188.4 152.066C185.388 148.94 185.14 143.922 187.655 137.011L200.284 135.684C198.836 139.661 198.963 142.302 200.664 143.605C202.419 144.903 206.111 145.256 211.741 144.664C218.949 143.907 223.115 141.987 224.236 138.904C224.635 137.81 224.365 136.882 223.428 136.12C222.509 135.308 221.43 134.729 220.19 134.381C218.968 133.983 217.03 133.47 214.374 132.84C214.095 132.774 213.859 132.727 213.667 132.7C213.474 132.672 213.238 132.625 212.959 132.559C212.732 132.487 212.505 132.415 212.278 132.343C209.955 131.775 208.261 131.355 207.195 131.085C206.148 130.764 204.743 130.314 202.98 129.735C201.236 129.105 199.99 128.495 199.244 127.904C198.568 127.258 197.877 126.446 197.17 125.468C196.463 124.491 196.117 123.355 196.132 122.063C196.2 120.765 196.541 119.271 197.157 117.58C198.785 113.106 201.875 109.482 206.427 106.708C211.032 103.929 216.912 102.164 224.068 101.412C232.223 100.554 237.746 101.647 240.636 104.691C243.545 107.684 243.994 111.94 241.986 117.459L229.358 118.786C231.348 113.317 228.318 111.006 220.268 111.852C214.112 112.499 210.563 114.115 209.622 116.7C209.188 117.894 209.44 118.799 210.379 119.418C211.317 120.037 213.743 120.81 217.657 121.737C224.154 123.349 228.458 124.594 230.568 125.472C236.702 128.222 238.819 132.208 236.919 137.428Z" fill="#FA00FF"/>
<path d="M259.662 139.628L274.614 137.339L270.814 147.779L249.943 150.69C247.767 150.967 246.3 150.619 245.541 149.647C244.781 148.675 244.781 147.145 245.541 145.056L253.413 123.43L243.942 124.425L247.742 113.985L257.213 112.989L259.791 105.905L273.777 100.849L269.841 111.662L282.942 110.285L279.142 120.726L266.041 122.103L259.662 139.628Z" fill="#FA00FF"/>
<path d="M280.805 128.584C283.103 122.27 286.963 117.226 292.385 113.453C297.825 109.629 303.833 107.372 310.411 106.681C316.988 105.99 321.739 107.116 324.666 110.06C327.663 112.948 328.012 117.55 325.714 123.863C323.416 130.177 319.547 135.246 314.107 139.069C308.72 142.887 302.738 145.141 296.161 145.832C289.583 146.524 284.796 145.425 281.799 142.537C278.821 139.598 278.489 134.947 280.805 128.584ZM293.433 127.256C292.312 130.339 292.338 132.559 293.514 133.918C294.707 135.227 296.856 135.718 299.961 135.392C303.012 135.071 305.678 134.074 307.957 132.4C310.254 130.676 311.964 128.273 313.086 125.191C314.19 122.158 314.145 119.987 312.951 118.678C311.776 117.32 309.662 116.801 306.611 117.121C303.506 117.448 300.805 118.473 298.508 120.196C296.229 121.87 294.537 124.224 293.433 127.256Z" fill="#FA00FF"/>
<path d="M324.383 142.149L336.027 110.157C336.769 108.118 337.918 106.491 339.473 105.276C341.082 104.055 342.956 103.356 345.095 103.179L371.002 101.03L367.202 111.47L347.081 113.155L337.011 140.822L324.383 142.149Z" fill="#FA00FF"/>
<path d="M398.762 93.0198C397.066 94.2021 395.035 94.9177 392.667 95.1665C390.299 95.4154 388.639 95.1118 387.685 94.2557C386.802 93.3444 386.714 91.9193 387.42 89.9803C388.107 88.0911 389.299 86.5554 390.994 85.3731C392.69 84.1908 394.695 83.4779 397.01 83.2346C399.378 82.9857 401.029 83.3142 401.965 84.22C402.953 85.1202 403.103 86.515 402.415 88.4042C401.728 90.2934 400.51 91.8319 398.762 93.0198ZM361.265 138.272L365.065 127.832L376.352 126.646L382.622 109.419L372.751 110.887L376.551 100.446L391.818 98.1246C394.064 97.7929 395.567 98.1131 396.327 99.0852C397.139 100.052 397.165 101.579 396.405 103.667L388.506 125.368L399.792 124.182L395.992 134.622L361.265 138.272Z" fill="#FA00FF"/>
<path d="M405.369 115.061C407.504 109.195 411.116 104.344 416.206 100.51C421.348 96.6705 427.05 94.4216 433.311 93.7635C439.573 93.1054 444.044 94.2372 446.726 97.1589C449.425 100.031 449.752 104.276 447.707 109.894L446.35 113.623L416.122 116.8C415.308 119.037 415.524 120.736 416.772 121.895C418.072 123.05 420.459 123.444 423.932 123.079C426.194 122.842 428.224 122.27 430.022 121.363C431.819 120.457 433.155 119.289 434.03 117.858L446.658 116.531C445.923 117.995 444.792 119.572 443.266 121.262C441.758 122.903 439.9 124.533 437.691 126.152C435.535 127.765 432.917 129.188 429.838 130.42C426.81 131.646 423.665 132.431 420.403 132.774C413.142 133.537 408.288 132.207 405.84 128.782C403.445 125.352 403.288 120.778 405.369 115.061ZM418.565 110.088L436.954 108.155C437.533 106.564 437.285 105.299 436.21 104.36C435.188 103.416 433.045 103.115 429.783 103.458C426.521 103.801 423.98 104.594 422.161 105.837C420.361 107.03 419.162 108.447 418.565 110.088Z" fill="#FA00FF"/>
<path d="M488.266 114.955C485.57 122.363 478.039 126.716 465.674 128.016C458.571 128.762 453.735 128.075 451.167 125.955C448.67 123.778 448.253 120.404 449.918 115.83L462.546 114.502C461.225 118.132 463.485 119.639 469.326 119.025C473.009 118.638 475.158 117.6 475.773 115.909C476.081 115.064 475.869 114.465 475.137 114.111C474.406 113.758 472.712 113.267 470.057 112.637C469.498 112.505 469.078 112.405 468.799 112.339C468.572 112.267 467.751 112.091 466.335 111.809C464.938 111.478 464.029 111.262 463.61 111.163C463.243 111.058 462.493 110.826 461.358 110.467C460.224 110.108 459.483 109.78 459.136 109.482C458.789 109.183 458.286 108.758 457.627 108.206C456.968 107.654 456.562 107.098 456.411 106.541C456.331 105.927 456.296 105.19 456.306 104.328C456.316 103.467 456.511 102.514 456.891 101.47C458.103 98.1387 460.57 95.3931 464.291 93.2328C468.031 91.0228 472.636 89.6303 478.109 89.0551C484.475 88.3859 488.767 89.1781 490.983 91.4315C493.217 93.6352 493.61 96.7257 492.163 100.703L479.534 102.03C480.041 100.638 479.896 99.5777 479.098 98.8487C478.319 98.0699 476.877 97.7911 474.773 98.0123C471.668 98.3386 469.854 99.2227 469.329 100.664C469.039 101.46 469.487 102.106 470.673 102.603C471.929 103.045 474.313 103.655 477.825 104.433C482.455 105.477 485.413 106.457 486.698 107.374C489.01 108.948 489.532 111.475 488.266 114.955Z" fill="#FA00FF"/>
<path d="M510 125V161" stroke="white" stroke-width="3" stroke-linecap="round"/>
<path d="M496.995 130.272L522.451 155.728" stroke="white" stroke-width="3" stroke-linecap="round"/>
<path d="M492 143L528 143" stroke="white" stroke-width="3" stroke-linecap="round"/>
<path d="M496.995 155.728L522.451 130.272" stroke="white" stroke-width="3" stroke-linecap="round"/>
<path d="M11 95.0526C30.6865 102.954 41.0526 87 41.0526 87C41.0526 87 32.3516 105.071 49.1051 117.053C33.9497 108.303 19.0526 125.105 19.0526 125.105C19.0526 125.105 25.7881 106.439 11 95.0526Z" stroke="#80C0FF"/>
<path d="M458.288 48.2978C489.483 36.7425 484.721 7.28823 484.721 7.28823C484.721 7.28823 493.646 37.4471 525.731 33.7214C498.907 39.5188 499.298 74.731 499.298 74.731C499.298 74.731 487.462 45.95 458.288 48.2978Z" fill="#6EB7FF"/>
<defs>
<filter id="filter0_d_139_9" x="59.5" y="30.55" width="388.572" height="142.29" filterUnits="userSpaceOnUse" color-interpolation-filters="sRGB">
<feFlood flood-opacity="0" result="BackgroundImageFix"/>
<feColorMatrix in="SourceAlpha" type="matrix" values="0 0 0 0 0 0 0 0 0 0 0 0 0 0 0 0 0 0 127 0" result="hardAlpha"/>
<feOffset dy="4"/>
<feGaussianBlur stdDeviation="2"/>
<feComposite in2="hardAlpha" operator="out"/>
<feColorMatrix type="matrix" values="0 0 0 0 0 0 0 0 0 0 0 0 0 0 0 0 0 0 0.25 0"/>
<feBlend mode="normal" in2="BackgroundImageFix" result="effect1_dropShadow_139_9"/>
<feBlend mode="normal" in="SourceGraphic" in2="effect1_dropShadow_139_9" result="shape"/>
</filter>
</defs>
</svg>
